<mxfile host="app.diagrams.net" modified="2023-10-30T15:38:32.225Z" agent="Mozilla/5.0 (Windows NT 10.0; Win64; x64) AppleWebKit/537.36 (KHTML, like Gecko) Chrome/118.0.0.0 Safari/537.36" etag="g2FyYU7ZRH2N5eq6JGoP" version="22.0.8" type="device">
  <diagram name="Page-1" id="mh33Nh7GLfxJVk6CLi4O">
    <mxGraphModel dx="2099" dy="803" grid="1" gridSize="10" guides="1" tooltips="1" connect="1" arrows="1" fold="1" page="1" pageScale="1" pageWidth="827" pageHeight="1169" math="0" shadow="0">
      <root>
        <mxCell id="0" />
        <mxCell id="1" parent="0" />
        <mxCell id="qs8lRnpPfg3MEX0tBJRM-13" style="edgeStyle=orthogonalEdgeStyle;rounded=0;orthogonalLoop=1;jettySize=auto;html=1;exitX=1;exitY=0.5;exitDx=0;exitDy=0;entryX=0;entryY=0.5;entryDx=0;entryDy=0;" parent="1" source="qs8lRnpPfg3MEX0tBJRM-1" target="qs8lRnpPfg3MEX0tBJRM-11" edge="1">
          <mxGeometry relative="1" as="geometry" />
        </mxCell>
        <mxCell id="qs8lRnpPfg3MEX0tBJRM-1" value="Expression &lt;br style=&quot;font-size: 17px;&quot;&gt;Encoder" style="rounded=1;whiteSpace=wrap;html=1;fillColor=#dae8fc;strokeColor=default;fontSize=17;" parent="1" vertex="1">
          <mxGeometry x="80" y="145" width="120" height="50" as="geometry" />
        </mxCell>
        <mxCell id="qs8lRnpPfg3MEX0tBJRM-15" style="edgeStyle=orthogonalEdgeStyle;rounded=0;orthogonalLoop=1;jettySize=auto;html=1;exitX=1;exitY=0.5;exitDx=0;exitDy=0;" parent="1" source="qs8lRnpPfg3MEX0tBJRM-4" target="qs8lRnpPfg3MEX0tBJRM-14" edge="1">
          <mxGeometry relative="1" as="geometry" />
        </mxCell>
        <mxCell id="qs8lRnpPfg3MEX0tBJRM-4" value="Operation&lt;br style=&quot;font-size: 17px;&quot;&gt;Encoder" style="rounded=1;whiteSpace=wrap;html=1;fillColor=#e1d5e7;strokeColor=default;fontSize=17;" parent="1" vertex="1">
          <mxGeometry x="80" y="235" width="120" height="50" as="geometry" />
        </mxCell>
        <mxCell id="qs8lRnpPfg3MEX0tBJRM-17" style="edgeStyle=orthogonalEdgeStyle;rounded=0;orthogonalLoop=1;jettySize=auto;html=1;exitX=1;exitY=0.5;exitDx=0;exitDy=0;entryX=0;entryY=0.5;entryDx=0;entryDy=0;" parent="1" source="qs8lRnpPfg3MEX0tBJRM-5" target="qs8lRnpPfg3MEX0tBJRM-16" edge="1">
          <mxGeometry relative="1" as="geometry" />
        </mxCell>
        <mxCell id="qs8lRnpPfg3MEX0tBJRM-5" value="Expression &lt;br style=&quot;font-size: 17px;&quot;&gt;Encoder" style="rounded=1;whiteSpace=wrap;html=1;fillColor=#dae8fc;strokeColor=default;fontSize=17;" parent="1" vertex="1">
          <mxGeometry x="270" y="415" width="120" height="50" as="geometry" />
        </mxCell>
        <mxCell id="qs8lRnpPfg3MEX0tBJRM-31" style="edgeStyle=orthogonalEdgeStyle;rounded=0;orthogonalLoop=1;jettySize=auto;html=1;exitX=1;exitY=0.5;exitDx=0;exitDy=0;" parent="1" source="qs8lRnpPfg3MEX0tBJRM-7" target="qs8lRnpPfg3MEX0tBJRM-30" edge="1">
          <mxGeometry relative="1" as="geometry" />
        </mxCell>
        <mxCell id="qs8lRnpPfg3MEX0tBJRM-7" value="π" style="rounded=1;whiteSpace=wrap;html=1;fillColor=#f5f5f5;fontColor=#333333;strokeColor=#666666;fontSize=19;" parent="1" vertex="1">
          <mxGeometry x="502" y="150" width="40" height="130" as="geometry" />
        </mxCell>
        <mxCell id="qs8lRnpPfg3MEX0tBJRM-11" value="e&lt;sub&gt;x&lt;/sub&gt;" style="rounded=1;whiteSpace=wrap;html=1;dashed=1;dashPattern=8 8;fontSize=17;fontStyle=1" parent="1" vertex="1">
          <mxGeometry x="240" y="145" width="120" height="50" as="geometry" />
        </mxCell>
        <mxCell id="qs8lRnpPfg3MEX0tBJRM-14" value="t" style="rounded=1;whiteSpace=wrap;html=1;dashed=1;dashPattern=8 8;fontSize=17;fontStyle=1" parent="1" vertex="1">
          <mxGeometry x="240" y="235" width="120" height="50" as="geometry" />
        </mxCell>
        <mxCell id="qs8lRnpPfg3MEX0tBJRM-16" value="e&lt;span style=&quot;font-size: 14.1667px;&quot;&gt;&lt;sub&gt;y&lt;/sub&gt;&lt;/span&gt;" style="rounded=1;whiteSpace=wrap;html=1;dashed=1;dashPattern=8 8;fontSize=17;fontStyle=1" parent="1" vertex="1">
          <mxGeometry x="440" y="415" width="120" height="50" as="geometry" />
        </mxCell>
        <mxCell id="qs8lRnpPfg3MEX0tBJRM-19" style="edgeStyle=orthogonalEdgeStyle;rounded=0;orthogonalLoop=1;jettySize=auto;html=1;exitX=1;exitY=0.5;exitDx=0;exitDy=0;" parent="1" source="qs8lRnpPfg3MEX0tBJRM-18" target="qs8lRnpPfg3MEX0tBJRM-1" edge="1">
          <mxGeometry relative="1" as="geometry" />
        </mxCell>
        <mxCell id="qs8lRnpPfg3MEX0tBJRM-18" value="x" style="ellipse;whiteSpace=wrap;html=1;aspect=fixed;fontSize=18;" parent="1" vertex="1">
          <mxGeometry x="-10" y="140" width="60" height="60" as="geometry" />
        </mxCell>
        <mxCell id="qs8lRnpPfg3MEX0tBJRM-21" style="edgeStyle=orthogonalEdgeStyle;rounded=0;orthogonalLoop=1;jettySize=auto;html=1;exitX=1;exitY=0.5;exitDx=0;exitDy=0;entryX=0;entryY=0.5;entryDx=0;entryDy=0;" parent="1" source="qs8lRnpPfg3MEX0tBJRM-20" target="qs8lRnpPfg3MEX0tBJRM-4" edge="1">
          <mxGeometry relative="1" as="geometry" />
        </mxCell>
        <mxCell id="qs8lRnpPfg3MEX0tBJRM-20" value="t" style="ellipse;whiteSpace=wrap;html=1;aspect=fixed;fontSize=18;" parent="1" vertex="1">
          <mxGeometry x="-10" y="230" width="60" height="60" as="geometry" />
        </mxCell>
        <mxCell id="qs8lRnpPfg3MEX0tBJRM-23" style="edgeStyle=orthogonalEdgeStyle;rounded=0;orthogonalLoop=1;jettySize=auto;html=1;exitX=1;exitY=0.5;exitDx=0;exitDy=0;" parent="1" source="qs8lRnpPfg3MEX0tBJRM-22" target="qs8lRnpPfg3MEX0tBJRM-5" edge="1">
          <mxGeometry relative="1" as="geometry" />
        </mxCell>
        <mxCell id="qs8lRnpPfg3MEX0tBJRM-22" value="y" style="ellipse;whiteSpace=wrap;html=1;aspect=fixed;fontSize=18;" parent="1" vertex="1">
          <mxGeometry x="75" y="410" width="60" height="60" as="geometry" />
        </mxCell>
        <mxCell id="qs8lRnpPfg3MEX0tBJRM-29" style="edgeStyle=orthogonalEdgeStyle;rounded=0;orthogonalLoop=1;jettySize=auto;html=1;exitX=1;exitY=0.5;exitDx=0;exitDy=0;exitPerimeter=0;entryX=0;entryY=0.5;entryDx=0;entryDy=0;" parent="1" source="qs8lRnpPfg3MEX0tBJRM-26" target="qs8lRnpPfg3MEX0tBJRM-7" edge="1">
          <mxGeometry relative="1" as="geometry" />
        </mxCell>
        <mxCell id="qs8lRnpPfg3MEX0tBJRM-26" value="&lt;font style=&quot;font-size: 19px;&quot;&gt;||&lt;/font&gt;" style="shape=or;whiteSpace=wrap;html=1;fillColor=#f5f5f5;fontColor=#333333;strokeColor=#666666;" parent="1" vertex="1">
          <mxGeometry x="414" y="175" width="60" height="80" as="geometry" />
        </mxCell>
        <mxCell id="qs8lRnpPfg3MEX0tBJRM-27" style="edgeStyle=orthogonalEdgeStyle;rounded=0;orthogonalLoop=1;jettySize=auto;html=1;exitX=1;exitY=0.5;exitDx=0;exitDy=0;entryX=0;entryY=0.5;entryDx=0;entryDy=0;entryPerimeter=0;curved=1;" parent="1" source="qs8lRnpPfg3MEX0tBJRM-11" target="qs8lRnpPfg3MEX0tBJRM-26" edge="1">
          <mxGeometry relative="1" as="geometry" />
        </mxCell>
        <mxCell id="qs8lRnpPfg3MEX0tBJRM-28" style="edgeStyle=orthogonalEdgeStyle;rounded=0;orthogonalLoop=1;jettySize=auto;html=1;exitX=1;exitY=0.5;exitDx=0;exitDy=0;entryX=0;entryY=0.5;entryDx=0;entryDy=0;entryPerimeter=0;curved=1;" parent="1" source="qs8lRnpPfg3MEX0tBJRM-14" target="qs8lRnpPfg3MEX0tBJRM-26" edge="1">
          <mxGeometry relative="1" as="geometry" />
        </mxCell>
        <mxCell id="qs8lRnpPfg3MEX0tBJRM-123" style="edgeStyle=orthogonalEdgeStyle;rounded=0;orthogonalLoop=1;jettySize=auto;html=1;exitX=0.5;exitY=1;exitDx=0;exitDy=0;" parent="1" source="qs8lRnpPfg3MEX0tBJRM-30" target="qs8lRnpPfg3MEX0tBJRM-122" edge="1">
          <mxGeometry relative="1" as="geometry" />
        </mxCell>
        <mxCell id="qs8lRnpPfg3MEX0tBJRM-30" value="e&lt;span style=&quot;font-size: 14.1667px;&quot;&gt;&lt;sub&gt;y&lt;/sub&gt;&#39;&lt;/span&gt;" style="rounded=1;whiteSpace=wrap;html=1;dashed=1;dashPattern=8 8;fontSize=17;fontStyle=1" parent="1" vertex="1">
          <mxGeometry x="600" y="190" width="120" height="50" as="geometry" />
        </mxCell>
        <mxCell id="qs8lRnpPfg3MEX0tBJRM-33" style="edgeStyle=orthogonalEdgeStyle;rounded=0;orthogonalLoop=1;jettySize=auto;html=1;exitX=1;exitY=0.5;exitDx=0;exitDy=0;entryX=0.5;entryY=1;entryDx=0;entryDy=0;curved=1;" parent="1" source="qs8lRnpPfg3MEX0tBJRM-16" target="qs8lRnpPfg3MEX0tBJRM-122" edge="1">
          <mxGeometry relative="1" as="geometry">
            <mxPoint x="660" y="370" as="targetPoint" />
          </mxGeometry>
        </mxCell>
        <mxCell id="qs8lRnpPfg3MEX0tBJRM-35" style="edgeStyle=orthogonalEdgeStyle;rounded=0;orthogonalLoop=1;jettySize=auto;html=1;exitX=1;exitY=0.5;exitDx=0;exitDy=0;entryX=0;entryY=0.5;entryDx=0;entryDy=0;" parent="1" source="qs8lRnpPfg3MEX0tBJRM-36" target="qs8lRnpPfg3MEX0tBJRM-43" edge="1">
          <mxGeometry relative="1" as="geometry" />
        </mxCell>
        <mxCell id="qs8lRnpPfg3MEX0tBJRM-36" value="Expression &lt;br style=&quot;font-size: 17px;&quot;&gt;Encoder" style="rounded=1;whiteSpace=wrap;html=1;fillColor=#dae8fc;strokeColor=default;fontSize=17;" parent="1" vertex="1">
          <mxGeometry x="900" y="125" width="120" height="50" as="geometry" />
        </mxCell>
        <mxCell id="qs8lRnpPfg3MEX0tBJRM-39" style="edgeStyle=orthogonalEdgeStyle;rounded=0;orthogonalLoop=1;jettySize=auto;html=1;exitX=1;exitY=0.5;exitDx=0;exitDy=0;entryX=0;entryY=0.5;entryDx=0;entryDy=0;" parent="1" source="qs8lRnpPfg3MEX0tBJRM-40" target="qs8lRnpPfg3MEX0tBJRM-45" edge="1">
          <mxGeometry relative="1" as="geometry" />
        </mxCell>
        <mxCell id="qs8lRnpPfg3MEX0tBJRM-40" value="Expression &lt;br style=&quot;font-size: 17px;&quot;&gt;Encoder" style="rounded=1;whiteSpace=wrap;html=1;fillColor=#dae8fc;strokeColor=default;fontSize=17;" parent="1" vertex="1">
          <mxGeometry x="900" y="445" width="120" height="50" as="geometry" />
        </mxCell>
        <mxCell id="qs8lRnpPfg3MEX0tBJRM-43" value="e&lt;sub&gt;x&lt;/sub&gt;" style="rounded=1;whiteSpace=wrap;html=1;dashed=1;dashPattern=8 8;fontSize=17;fontStyle=1" parent="1" vertex="1">
          <mxGeometry x="1060" y="125" width="120" height="50" as="geometry" />
        </mxCell>
        <mxCell id="qs8lRnpPfg3MEX0tBJRM-44" value="T" style="rounded=1;whiteSpace=wrap;html=1;dashed=1;dashPattern=8 8;fontSize=17;fontStyle=1" parent="1" vertex="1">
          <mxGeometry x="1060" y="202.5" width="120" height="75" as="geometry" />
        </mxCell>
        <mxCell id="qs8lRnpPfg3MEX0tBJRM-45" value="e&lt;span style=&quot;font-size: 14.1667px;&quot;&gt;&lt;sub&gt;y&lt;/sub&gt;&lt;/span&gt;" style="rounded=1;whiteSpace=wrap;html=1;dashed=1;dashPattern=8 8;fontSize=17;fontStyle=1" parent="1" vertex="1">
          <mxGeometry x="1060" y="445" width="120" height="50" as="geometry" />
        </mxCell>
        <mxCell id="qs8lRnpPfg3MEX0tBJRM-46" style="edgeStyle=orthogonalEdgeStyle;rounded=0;orthogonalLoop=1;jettySize=auto;html=1;exitX=1;exitY=0.5;exitDx=0;exitDy=0;" parent="1" source="qs8lRnpPfg3MEX0tBJRM-47" target="qs8lRnpPfg3MEX0tBJRM-36" edge="1">
          <mxGeometry relative="1" as="geometry" />
        </mxCell>
        <mxCell id="qs8lRnpPfg3MEX0tBJRM-47" value="x" style="ellipse;whiteSpace=wrap;html=1;aspect=fixed;fontSize=18;" parent="1" vertex="1">
          <mxGeometry x="800" y="120" width="60" height="60" as="geometry" />
        </mxCell>
        <mxCell id="qs8lRnpPfg3MEX0tBJRM-60" style="edgeStyle=orthogonalEdgeStyle;rounded=0;orthogonalLoop=1;jettySize=auto;html=1;exitX=1;exitY=0.5;exitDx=0;exitDy=0;entryX=0;entryY=0.5;entryDx=0;entryDy=0;curved=1;" parent="1" source="qs8lRnpPfg3MEX0tBJRM-49" target="qs8lRnpPfg3MEX0tBJRM-44" edge="1">
          <mxGeometry relative="1" as="geometry" />
        </mxCell>
        <mxCell id="qs8lRnpPfg3MEX0tBJRM-66" style="edgeStyle=orthogonalEdgeStyle;rounded=0;orthogonalLoop=1;jettySize=auto;html=1;exitX=1;exitY=0.5;exitDx=0;exitDy=0;entryX=0;entryY=0.5;entryDx=0;entryDy=0;curved=1;" parent="1" source="qs8lRnpPfg3MEX0tBJRM-49" target="qs8lRnpPfg3MEX0tBJRM-64" edge="1">
          <mxGeometry relative="1" as="geometry" />
        </mxCell>
        <mxCell id="qs8lRnpPfg3MEX0tBJRM-49" value="t" style="ellipse;whiteSpace=wrap;html=1;aspect=fixed;fontSize=18;" parent="1" vertex="1">
          <mxGeometry x="800" y="210" width="60" height="60" as="geometry" />
        </mxCell>
        <mxCell id="qs8lRnpPfg3MEX0tBJRM-50" style="edgeStyle=orthogonalEdgeStyle;rounded=0;orthogonalLoop=1;jettySize=auto;html=1;exitX=1;exitY=0.5;exitDx=0;exitDy=0;" parent="1" source="qs8lRnpPfg3MEX0tBJRM-51" target="qs8lRnpPfg3MEX0tBJRM-40" edge="1">
          <mxGeometry relative="1" as="geometry" />
        </mxCell>
        <mxCell id="qs8lRnpPfg3MEX0tBJRM-51" value="y" style="ellipse;whiteSpace=wrap;html=1;aspect=fixed;fontSize=18;" parent="1" vertex="1">
          <mxGeometry x="800" y="440" width="60" height="60" as="geometry" />
        </mxCell>
        <mxCell id="qs8lRnpPfg3MEX0tBJRM-56" value="e&lt;span style=&quot;font-size: 14.1667px;&quot;&gt;&lt;sub&gt;y&lt;/sub&gt;&#39;&lt;/span&gt;" style="rounded=1;whiteSpace=wrap;html=1;dashed=1;dashPattern=8 8;fontSize=17;fontStyle=1" parent="1" vertex="1">
          <mxGeometry x="1375" y="170" width="120" height="50" as="geometry" />
        </mxCell>
        <mxCell id="qs8lRnpPfg3MEX0tBJRM-59" style="edgeStyle=orthogonalEdgeStyle;rounded=0;orthogonalLoop=1;jettySize=auto;html=1;exitX=0.5;exitY=1;exitDx=0;exitDy=0;entryX=0.5;entryY=0;entryDx=0;entryDy=0;" parent="1" source="qs8lRnpPfg3MEX0tBJRM-56" target="qs8lRnpPfg3MEX0tBJRM-124" edge="1">
          <mxGeometry relative="1" as="geometry">
            <mxPoint x="1435" y="265" as="targetPoint" />
          </mxGeometry>
        </mxCell>
        <mxCell id="qs8lRnpPfg3MEX0tBJRM-73" style="edgeStyle=orthogonalEdgeStyle;rounded=0;orthogonalLoop=1;jettySize=auto;html=1;exitX=1;exitY=0.5;exitDx=0;exitDy=0;exitPerimeter=0;" parent="1" source="qs8lRnpPfg3MEX0tBJRM-61" target="qs8lRnpPfg3MEX0tBJRM-56" edge="1">
          <mxGeometry relative="1" as="geometry" />
        </mxCell>
        <mxCell id="qs8lRnpPfg3MEX0tBJRM-61" value="&lt;font style=&quot;font-size: 19px;&quot;&gt;X&lt;/font&gt;" style="shape=or;whiteSpace=wrap;html=1;fillColor=#f5f5f5;fontColor=#333333;strokeColor=#666666;" parent="1" vertex="1">
          <mxGeometry x="1270" y="155" width="60" height="80" as="geometry" />
        </mxCell>
        <mxCell id="qs8lRnpPfg3MEX0tBJRM-62" style="edgeStyle=orthogonalEdgeStyle;rounded=0;orthogonalLoop=1;jettySize=auto;html=1;exitX=1;exitY=0.5;exitDx=0;exitDy=0;entryX=0;entryY=0.5;entryDx=0;entryDy=0;entryPerimeter=0;curved=1;" parent="1" source="qs8lRnpPfg3MEX0tBJRM-43" target="qs8lRnpPfg3MEX0tBJRM-61" edge="1">
          <mxGeometry relative="1" as="geometry" />
        </mxCell>
        <mxCell id="qs8lRnpPfg3MEX0tBJRM-63" style="edgeStyle=orthogonalEdgeStyle;rounded=0;orthogonalLoop=1;jettySize=auto;html=1;exitX=1;exitY=0.5;exitDx=0;exitDy=0;entryX=0;entryY=0.5;entryDx=0;entryDy=0;entryPerimeter=0;curved=1;" parent="1" source="qs8lRnpPfg3MEX0tBJRM-44" target="qs8lRnpPfg3MEX0tBJRM-61" edge="1">
          <mxGeometry relative="1" as="geometry" />
        </mxCell>
        <mxCell id="qs8lRnpPfg3MEX0tBJRM-67" style="edgeStyle=orthogonalEdgeStyle;rounded=0;orthogonalLoop=1;jettySize=auto;html=1;exitX=1;exitY=0.5;exitDx=0;exitDy=0;" parent="1" source="qs8lRnpPfg3MEX0tBJRM-64" target="qs8lRnpPfg3MEX0tBJRM-65" edge="1">
          <mxGeometry relative="1" as="geometry" />
        </mxCell>
        <mxCell id="qs8lRnpPfg3MEX0tBJRM-64" value="Operation&lt;br style=&quot;font-size: 17px;&quot;&gt;Encoder" style="rounded=1;whiteSpace=wrap;html=1;fillColor=#e1d5e7;strokeColor=default;fontSize=17;" parent="1" vertex="1">
          <mxGeometry x="900" y="310" width="120" height="50" as="geometry" />
        </mxCell>
        <mxCell id="qs8lRnpPfg3MEX0tBJRM-65" value="t" style="rounded=1;whiteSpace=wrap;html=1;dashed=1;dashPattern=8 8;fontSize=17;fontStyle=1" parent="1" vertex="1">
          <mxGeometry x="1060" y="310" width="120" height="50" as="geometry" />
        </mxCell>
        <mxCell id="qs8lRnpPfg3MEX0tBJRM-68" value="&lt;font style=&quot;font-size: 27px;&quot;&gt;+&lt;/font&gt;" style="shape=or;whiteSpace=wrap;html=1;fillColor=#f5f5f5;fontColor=#333333;strokeColor=#666666;" parent="1" vertex="1">
          <mxGeometry x="1270" y="360" width="60" height="80" as="geometry" />
        </mxCell>
        <mxCell id="qs8lRnpPfg3MEX0tBJRM-70" style="edgeStyle=orthogonalEdgeStyle;rounded=0;orthogonalLoop=1;jettySize=auto;html=1;exitX=1;exitY=0.5;exitDx=0;exitDy=0;entryX=0;entryY=0.5;entryDx=0;entryDy=0;entryPerimeter=0;curved=1;" parent="1" source="qs8lRnpPfg3MEX0tBJRM-65" target="qs8lRnpPfg3MEX0tBJRM-68" edge="1">
          <mxGeometry relative="1" as="geometry" />
        </mxCell>
        <mxCell id="qs8lRnpPfg3MEX0tBJRM-71" style="edgeStyle=orthogonalEdgeStyle;rounded=0;orthogonalLoop=1;jettySize=auto;html=1;exitX=1;exitY=0.5;exitDx=0;exitDy=0;entryX=0;entryY=0.5;entryDx=0;entryDy=0;entryPerimeter=0;curved=1;" parent="1" source="qs8lRnpPfg3MEX0tBJRM-45" target="qs8lRnpPfg3MEX0tBJRM-68" edge="1">
          <mxGeometry relative="1" as="geometry" />
        </mxCell>
        <mxCell id="qs8lRnpPfg3MEX0tBJRM-72" style="edgeStyle=orthogonalEdgeStyle;rounded=0;orthogonalLoop=1;jettySize=auto;html=1;exitX=1;exitY=0.5;exitDx=0;exitDy=0;exitPerimeter=0;entryX=0.5;entryY=1;entryDx=0;entryDy=0;curved=1;" parent="1" source="qs8lRnpPfg3MEX0tBJRM-68" target="qs8lRnpPfg3MEX0tBJRM-124" edge="1">
          <mxGeometry relative="1" as="geometry">
            <mxPoint x="1435" y="315" as="targetPoint" />
          </mxGeometry>
        </mxCell>
        <mxCell id="qs8lRnpPfg3MEX0tBJRM-76" value="" style="endArrow=none;html=1;rounded=0;" parent="1" edge="1">
          <mxGeometry width="50" height="50" relative="1" as="geometry">
            <mxPoint x="1521" y="620" as="sourcePoint" />
            <mxPoint x="1521" y="45" as="targetPoint" />
          </mxGeometry>
        </mxCell>
        <mxCell id="qs8lRnpPfg3MEX0tBJRM-94" style="edgeStyle=orthogonalEdgeStyle;rounded=0;orthogonalLoop=1;jettySize=auto;html=1;exitX=0.5;exitY=1;exitDx=0;exitDy=0;curved=1;" parent="1" source="qs8lRnpPfg3MEX0tBJRM-77" target="qs8lRnpPfg3MEX0tBJRM-88" edge="1">
          <mxGeometry relative="1" as="geometry">
            <Array as="points">
              <mxPoint x="1944" y="250" />
              <mxPoint x="1670" y="250" />
              <mxPoint x="1670" y="333" />
            </Array>
          </mxGeometry>
        </mxCell>
        <mxCell id="qs8lRnpPfg3MEX0tBJRM-77" value="e&lt;span style=&quot;font-size: 14.1667px;&quot;&gt;&lt;sub&gt;y1&lt;/sub&gt;&#39;&lt;/span&gt;" style="rounded=1;whiteSpace=wrap;html=1;dashed=1;dashPattern=8 8;fontSize=17;fontStyle=1" parent="1" vertex="1">
          <mxGeometry x="1909" y="140" width="70" height="50" as="geometry" />
        </mxCell>
        <mxCell id="qs8lRnpPfg3MEX0tBJRM-85" style="edgeStyle=orthogonalEdgeStyle;rounded=0;orthogonalLoop=1;jettySize=auto;html=1;exitX=1;exitY=0.5;exitDx=0;exitDy=0;entryX=0;entryY=0.5;entryDx=0;entryDy=0;" parent="1" source="qs8lRnpPfg3MEX0tBJRM-78" target="qs8lRnpPfg3MEX0tBJRM-77" edge="1">
          <mxGeometry relative="1" as="geometry" />
        </mxCell>
        <mxCell id="qs8lRnpPfg3MEX0tBJRM-78" value="&lt;font face=&quot;Courier New&quot; data-font-src=&quot;https://fonts.googleapis.com/css?family=Architects+Daughter&quot;&gt;M&lt;/font&gt;" style="rounded=1;whiteSpace=wrap;html=1;fontSize=25;fillColor=#f5f5f5;fontColor=#333333;strokeColor=#666666;" parent="1" vertex="1">
          <mxGeometry x="1739" y="110" width="120" height="110" as="geometry" />
        </mxCell>
        <mxCell id="qs8lRnpPfg3MEX0tBJRM-82" style="edgeStyle=orthogonalEdgeStyle;rounded=0;orthogonalLoop=1;jettySize=auto;html=1;exitX=1;exitY=0.5;exitDx=0;exitDy=0;entryX=0;entryY=0.5;entryDx=0;entryDy=0;curved=1;" parent="1" source="qs8lRnpPfg3MEX0tBJRM-79" target="qs8lRnpPfg3MEX0tBJRM-78" edge="1">
          <mxGeometry relative="1" as="geometry" />
        </mxCell>
        <mxCell id="qs8lRnpPfg3MEX0tBJRM-79" value="x" style="ellipse;whiteSpace=wrap;html=1;aspect=fixed;fontSize=18;" parent="1" vertex="1">
          <mxGeometry x="1580" y="90" width="60" height="60" as="geometry" />
        </mxCell>
        <mxCell id="qs8lRnpPfg3MEX0tBJRM-83" style="edgeStyle=orthogonalEdgeStyle;rounded=0;orthogonalLoop=1;jettySize=auto;html=1;exitX=1;exitY=0.5;exitDx=0;exitDy=0;entryX=0;entryY=0.5;entryDx=0;entryDy=0;curved=1;" parent="1" source="qs8lRnpPfg3MEX0tBJRM-80" target="qs8lRnpPfg3MEX0tBJRM-78" edge="1">
          <mxGeometry relative="1" as="geometry" />
        </mxCell>
        <mxCell id="qs8lRnpPfg3MEX0tBJRM-80" value="t&lt;sub&gt;1&lt;/sub&gt;" style="ellipse;whiteSpace=wrap;html=1;aspect=fixed;fontSize=18;" parent="1" vertex="1">
          <mxGeometry x="1580" y="165" width="60" height="60" as="geometry" />
        </mxCell>
        <mxCell id="qs8lRnpPfg3MEX0tBJRM-86" value="e&lt;span style=&quot;font-size: 14.1667px;&quot;&gt;&lt;sub&gt;y2&lt;/sub&gt;&#39;&lt;/span&gt;" style="rounded=1;whiteSpace=wrap;html=1;dashed=1;dashPattern=8 8;fontSize=17;fontStyle=1" parent="1" vertex="1">
          <mxGeometry x="1909" y="307.5" width="70" height="50" as="geometry" />
        </mxCell>
        <mxCell id="qs8lRnpPfg3MEX0tBJRM-87" style="edgeStyle=orthogonalEdgeStyle;rounded=0;orthogonalLoop=1;jettySize=auto;html=1;exitX=1;exitY=0.5;exitDx=0;exitDy=0;entryX=0;entryY=0.5;entryDx=0;entryDy=0;" parent="1" source="qs8lRnpPfg3MEX0tBJRM-88" target="qs8lRnpPfg3MEX0tBJRM-86" edge="1">
          <mxGeometry relative="1" as="geometry" />
        </mxCell>
        <mxCell id="qs8lRnpPfg3MEX0tBJRM-88" value="&lt;font face=&quot;Courier New&quot; data-font-src=&quot;https://fonts.googleapis.com/css?family=Architects+Daughter&quot;&gt;M&lt;/font&gt;" style="rounded=1;whiteSpace=wrap;html=1;fontSize=25;fillColor=#f5f5f5;fontColor=#333333;strokeColor=#666666;" parent="1" vertex="1">
          <mxGeometry x="1739" y="277.5" width="120" height="110" as="geometry" />
        </mxCell>
        <mxCell id="qs8lRnpPfg3MEX0tBJRM-91" style="edgeStyle=orthogonalEdgeStyle;rounded=0;orthogonalLoop=1;jettySize=auto;html=1;exitX=1;exitY=0.5;exitDx=0;exitDy=0;entryX=0;entryY=0.5;entryDx=0;entryDy=0;curved=1;" parent="1" source="qs8lRnpPfg3MEX0tBJRM-92" target="qs8lRnpPfg3MEX0tBJRM-88" edge="1">
          <mxGeometry relative="1" as="geometry" />
        </mxCell>
        <mxCell id="qs8lRnpPfg3MEX0tBJRM-92" value="t&lt;sub&gt;2&lt;/sub&gt;" style="ellipse;whiteSpace=wrap;html=1;aspect=fixed;fontSize=18;" parent="1" vertex="1">
          <mxGeometry x="1580" y="327.5" width="60" height="60" as="geometry" />
        </mxCell>
        <mxCell id="qs8lRnpPfg3MEX0tBJRM-95" value="e&lt;span style=&quot;font-size: 14.1667px;&quot;&gt;&lt;sub&gt;yn&lt;/sub&gt;&#39;&lt;/span&gt;" style="rounded=1;whiteSpace=wrap;html=1;dashed=1;dashPattern=8 8;fontSize=17;fontStyle=1" parent="1" vertex="1">
          <mxGeometry x="1909" y="480" width="70" height="50" as="geometry" />
        </mxCell>
        <mxCell id="qs8lRnpPfg3MEX0tBJRM-96" style="edgeStyle=orthogonalEdgeStyle;rounded=0;orthogonalLoop=1;jettySize=auto;html=1;exitX=1;exitY=0.5;exitDx=0;exitDy=0;entryX=0;entryY=0.5;entryDx=0;entryDy=0;" parent="1" source="qs8lRnpPfg3MEX0tBJRM-97" target="qs8lRnpPfg3MEX0tBJRM-95" edge="1">
          <mxGeometry relative="1" as="geometry" />
        </mxCell>
        <mxCell id="qs8lRnpPfg3MEX0tBJRM-97" value="&lt;font face=&quot;Courier New&quot; data-font-src=&quot;https://fonts.googleapis.com/css?family=Architects+Daughter&quot;&gt;M&lt;/font&gt;" style="rounded=1;whiteSpace=wrap;html=1;fontSize=25;fillColor=#f5f5f5;fontColor=#333333;strokeColor=#666666;" parent="1" vertex="1">
          <mxGeometry x="1739" y="450" width="120" height="110" as="geometry" />
        </mxCell>
        <mxCell id="qs8lRnpPfg3MEX0tBJRM-98" style="edgeStyle=orthogonalEdgeStyle;rounded=0;orthogonalLoop=1;jettySize=auto;html=1;exitX=1;exitY=0.5;exitDx=0;exitDy=0;entryX=0;entryY=0.5;entryDx=0;entryDy=0;curved=1;" parent="1" source="qs8lRnpPfg3MEX0tBJRM-99" target="qs8lRnpPfg3MEX0tBJRM-97" edge="1">
          <mxGeometry relative="1" as="geometry" />
        </mxCell>
        <mxCell id="qs8lRnpPfg3MEX0tBJRM-99" value="t&lt;sub&gt;n&lt;/sub&gt;" style="ellipse;whiteSpace=wrap;html=1;aspect=fixed;fontSize=18;" parent="1" vertex="1">
          <mxGeometry x="1570" y="520" width="60" height="60" as="geometry" />
        </mxCell>
        <mxCell id="qs8lRnpPfg3MEX0tBJRM-101" style="edgeStyle=orthogonalEdgeStyle;rounded=0;orthogonalLoop=1;jettySize=auto;html=1;exitX=1;exitY=0.5;exitDx=0;exitDy=0;entryX=0;entryY=0.5;entryDx=0;entryDy=0;curved=1;" parent="1" source="qs8lRnpPfg3MEX0tBJRM-100" target="qs8lRnpPfg3MEX0tBJRM-97" edge="1">
          <mxGeometry relative="1" as="geometry" />
        </mxCell>
        <mxCell id="qs8lRnpPfg3MEX0tBJRM-100" value="e&lt;span style=&quot;font-size: 14.1667px;&quot;&gt;&lt;sub&gt;yn-1&lt;/sub&gt;&#39;&lt;/span&gt;" style="rounded=1;whiteSpace=wrap;html=1;dashed=1;dashPattern=8 8;fontSize=17;fontStyle=1" parent="1" vertex="1">
          <mxGeometry x="1570" y="440" width="70" height="50" as="geometry" />
        </mxCell>
        <mxCell id="qs8lRnpPfg3MEX0tBJRM-108" value="" style="endArrow=none;dashed=1;html=1;dashPattern=1 3;strokeWidth=2;rounded=0;" parent="1" edge="1">
          <mxGeometry width="50" height="50" relative="1" as="geometry">
            <mxPoint x="1541" y="420" as="sourcePoint" />
            <mxPoint x="2011" y="420" as="targetPoint" />
          </mxGeometry>
        </mxCell>
        <mxCell id="qs8lRnpPfg3MEX0tBJRM-109" value="" style="endArrow=none;html=1;rounded=0;" parent="1" edge="1">
          <mxGeometry width="50" height="50" relative="1" as="geometry">
            <mxPoint x="760" y="622.5" as="sourcePoint" />
            <mxPoint x="760" y="47.5" as="targetPoint" />
          </mxGeometry>
        </mxCell>
        <mxCell id="qs8lRnpPfg3MEX0tBJRM-110" value="Projection" style="text;strokeColor=none;fillColor=none;html=1;fontSize=24;fontStyle=1;verticalAlign=middle;align=center;" parent="1" vertex="1">
          <mxGeometry x="340" y="40" width="100" height="40" as="geometry" />
        </mxCell>
        <mxCell id="qs8lRnpPfg3MEX0tBJRM-111" value="Translation" style="text;strokeColor=none;fillColor=none;html=1;fontSize=24;fontStyle=1;verticalAlign=middle;align=center;" parent="1" vertex="1">
          <mxGeometry x="1110" y="40" width="100" height="40" as="geometry" />
        </mxCell>
        <mxCell id="qs8lRnpPfg3MEX0tBJRM-112" value="Multi-step Inference" style="text;strokeColor=none;fillColor=none;html=1;fontSize=24;fontStyle=1;verticalAlign=middle;align=center;" parent="1" vertex="1">
          <mxGeometry x="1759" y="40" width="100" height="40" as="geometry" />
        </mxCell>
        <mxCell id="qs8lRnpPfg3MEX0tBJRM-116" style="edgeStyle=orthogonalEdgeStyle;rounded=0;orthogonalLoop=1;jettySize=auto;html=1;exitX=0.5;exitY=1;exitDx=0;exitDy=0;" parent="1" edge="1">
          <mxGeometry relative="1" as="geometry">
            <mxPoint x="280" y="535" as="sourcePoint" />
            <mxPoint x="280" y="535" as="targetPoint" />
          </mxGeometry>
        </mxCell>
        <mxCell id="qs8lRnpPfg3MEX0tBJRM-117" value="Differentiation" style="text;whiteSpace=wrap;fontSize=19;fontStyle=2" parent="1" vertex="1">
          <mxGeometry y="312.5" width="260" height="40" as="geometry" />
        </mxCell>
        <mxCell id="qs8lRnpPfg3MEX0tBJRM-122" value="𝛿" style="ellipse;whiteSpace=wrap;html=1;aspect=fixed;fontSize=18;" parent="1" vertex="1">
          <mxGeometry x="630" y="315" width="60" height="60" as="geometry" />
        </mxCell>
        <mxCell id="qs8lRnpPfg3MEX0tBJRM-124" value="𝛿" style="ellipse;whiteSpace=wrap;html=1;aspect=fixed;fontSize=18;" parent="1" vertex="1">
          <mxGeometry x="1405" y="277.5" width="60" height="60" as="geometry" />
        </mxCell>
        <mxCell id="uV75IOI4h8Hwh0jISY2_-8" value="" style="endArrow=classic;html=1;rounded=0;" parent="1" edge="1">
          <mxGeometry width="50" height="50" relative="1" as="geometry">
            <mxPoint x="867.09" y="1290" as="sourcePoint" />
            <mxPoint x="867.09" y="940" as="targetPoint" />
          </mxGeometry>
        </mxCell>
        <mxCell id="uV75IOI4h8Hwh0jISY2_-9" value="" style="endArrow=classic;html=1;rounded=0;" parent="1" edge="1">
          <mxGeometry width="50" height="50" relative="1" as="geometry">
            <mxPoint x="868" y="1290" as="sourcePoint" />
            <mxPoint x="1288" y="1290" as="targetPoint" />
          </mxGeometry>
        </mxCell>
        <mxCell id="uV75IOI4h8Hwh0jISY2_-30" style="rounded=0;orthogonalLoop=1;jettySize=auto;html=1;exitX=1;exitY=1;exitDx=0;exitDy=0;dashed=1;fillColor=#fff2cc;strokeColor=#d6b656;endArrow=blockThin;endFill=1;entryX=0;entryY=0;entryDx=0;entryDy=0;" parent="1" source="uV75IOI4h8Hwh0jISY2_-11" target="uV75IOI4h8Hwh0jISY2_-27" edge="1">
          <mxGeometry relative="1" as="geometry">
            <mxPoint x="1015.66" y="1038.66" as="targetPoint" />
            <mxPoint x="946.9988347648319" y="993.7688347648319" as="sourcePoint" />
          </mxGeometry>
        </mxCell>
        <mxCell id="uV75IOI4h8Hwh0jISY2_-11" value="x" style="ellipse;whiteSpace=wrap;html=1;aspect=fixed;fillColor=#dae8fc;strokeColor=default;labelBorderColor=none;" parent="1" vertex="1">
          <mxGeometry x="941" y="993.77" width="25" height="25" as="geometry" />
        </mxCell>
        <mxCell id="uV75IOI4h8Hwh0jISY2_-19" value="y2" style="ellipse;whiteSpace=wrap;html=1;aspect=fixed;fillColor=#d5e8d4;strokeColor=default;" parent="1" vertex="1">
          <mxGeometry x="1074.5" y="1121" width="25" height="25" as="geometry" />
        </mxCell>
        <mxCell id="uV75IOI4h8Hwh0jISY2_-22" value="" style="ellipse;whiteSpace=wrap;html=1;aspect=fixed;fillColor=#f8cecc;strokeColor=default;" parent="1" vertex="1">
          <mxGeometry x="1185" y="1026" width="25" height="25" as="geometry" />
        </mxCell>
        <mxCell id="IgM3bS30g-ZwomFUyN2R-11" style="rounded=0;orthogonalLoop=1;jettySize=auto;html=1;exitX=1;exitY=1;exitDx=0;exitDy=0;endArrow=blockThin;endFill=1;fillColor=#e1d5e7;strokeColor=#9673a6;dashed=1;" parent="1" source="uV75IOI4h8Hwh0jISY2_-25" target="IgM3bS30g-ZwomFUyN2R-9" edge="1">
          <mxGeometry relative="1" as="geometry" />
        </mxCell>
        <mxCell id="uV75IOI4h8Hwh0jISY2_-27" value="y1&#39;" style="ellipse;whiteSpace=wrap;html=1;aspect=fixed;fillColor=#fff2cc;strokeColor=default;dashed=1;" parent="1" vertex="1">
          <mxGeometry x="987" y="1051" width="25" height="25" as="geometry" />
        </mxCell>
        <mxCell id="uV75IOI4h8Hwh0jISY2_-29" value="&lt;i&gt;t2 = addition&lt;br&gt;u&lt;br&gt;&lt;/i&gt;" style="text;html=1;strokeColor=none;fillColor=none;align=center;verticalAlign=middle;whiteSpace=wrap;rounded=0;" parent="1" vertex="1">
          <mxGeometry x="922" y="1095" width="85.48" height="30" as="geometry" />
        </mxCell>
        <mxCell id="uV75IOI4h8Hwh0jISY2_-31" value="&lt;i&gt;t1 = differentiation&lt;br&gt;z&lt;br&gt;&lt;/i&gt;" style="text;html=1;align=center;verticalAlign=middle;whiteSpace=wrap;rounded=0;" parent="1" vertex="1">
          <mxGeometry x="874" y="1032.5" width="100" height="30" as="geometry" />
        </mxCell>
        <mxCell id="uV75IOI4h8Hwh0jISY2_-34" value="" style="ellipse;whiteSpace=wrap;html=1;aspect=fixed;fillColor=#f8cecc;strokeColor=default;" parent="1" vertex="1">
          <mxGeometry x="1059.4999999999998" y="1241" width="25" height="25" as="geometry" />
        </mxCell>
        <mxCell id="uV75IOI4h8Hwh0jISY2_-35" value="" style="ellipse;whiteSpace=wrap;html=1;aspect=fixed;fillColor=#f8cecc;strokeColor=default;" parent="1" vertex="1">
          <mxGeometry x="955" y="1230" width="25" height="25" as="geometry" />
        </mxCell>
        <mxCell id="uV75IOI4h8Hwh0jISY2_-38" value="" style="ellipse;whiteSpace=wrap;html=1;aspect=fixed;fillColor=#f8cecc;strokeColor=default;" parent="1" vertex="1">
          <mxGeometry x="900" y="1148" width="25" height="25" as="geometry" />
        </mxCell>
        <mxCell id="IgM3bS30g-ZwomFUyN2R-1" value="" style="shape=image;verticalLabelPosition=bottom;labelBackgroundColor=default;verticalAlign=top;aspect=fixed;imageAspect=0;image=data:image/png,iVBORw0KGgoAAAANSUhEUgAAAYAAAAA8CAYAAABvuG0FAAAAAXNSR0IArs4c6QAAAARnQU1BAACxjwv8YQUAAAAJcEhZcwAAHYcAAB2HAY/l8WUAABuhSURBVHhe7Z0HXBTHF8d/NMGIsWKwIGKJIjbQKKBRsGHXaERQsceYqLGX+I8ttthLxBgbGitG1KioGCl2o5FmwYKiYMEWQFQ687+Z25N2d+weJyI3389nPzc3t7e3Nzszb+bNe2/0iAxwOBwOR+fQF145HA6Ho2NwAcDhcDg6ChcAHA6Ho6NwAcDhcDg6ChcAHA6Ho6NwAcDhcDg6ChcAHA6Ho6NwAcB5rxC8QlTkf8I7jjIe3opCqpDmFF8ykp8hOjZTeCeVFDy6+0RIaw8uADjvjfTXt7F6RC94Bb8QcjjZocLxwJyvMdsnRsjhFGdI+lNs+a4T1px4LuRI486R8XCf4YfXwnttwAUA572Q/voq5nv0Rmzb9fjZ9XMhVzkkPQXx8UnCO92AIAa7J/TBXv2x+G1Ga5QQ8jnFF0PThvhp+0I8nNcas/beFnLFYgyncX9gkOkqdBu2B7Fait/ABQBH69DObcNYN1xr4Imf++ft/IM8e6Ndx5aoZqAPPT096BuZoFblX3AzU1eikqTg+MKRWPZoAFbObMM7fx3C0LQZ5u5YgPDJg7HpQqKQKxZjdJqxAa5kHibMO6UVtSEXABytE7p5Gpbd6os5U79U2rlZtx+Had+NwPfje6KCTADoGk/9F2Kk56dYtNgD5rr393Wekpa9sXhlE8z9egQCYzKEXHHowQLD5i9B0qYBmLM3WsgtADQYHIejLV6FriO2RuZkuV+CkKOOZOIzvT4d9pPyJrNIREamkF98SXl+knhYliKjf78p5HB0kUzyjKx1tyQtPXaTlxpU+4g9Q0mZyq4kIDpdyNEMPgPgaA2q+vl95gKg1yIM6fCpkKsOY5Q0NRTSukAKjiyfglPlJ+N7D/XrIpzijR7MMGjaNMTtHo/1h58JueKp228SxlgEYN6iwwVaFC72AoDgObzGuuGPy9pcO+coI9rXE4uPpGPYqD4oz1UbeUgM24J5y8LQY4w76pfkBaQpxaVNmzYegElDTPH7nHW4kSRt/UsPNhgxYyBOr5+NPZLXErLQgRlADK55H8XVO9wW/X1CcB2bFm9BqSbj0NnZVMjlKKAmn4c2rcdtDETf7rWFXI5mFI82rYdP0dVtAKJD5uLPY9JNQ6u5fI0hZSOxeaOvxrMArgLiaIVnp/7Cb2dfoNOo3qilgwu7+ZF09wg2brwBh/HusDczEHI5uk6Flh0x2qo0/tzkI9m009CkGbqMrofgbV4IuJMu5EqDCwCOFkjBuZM+iEdDtPqippDHyc6ts744lZKOtl/acbNPzjtoJ962nwVuHl+Pk6FpQq5YjNHSqRtSM0/A+/AVIU8aXABwCkx68r846nkTFar0gkMTXVrUFQddHPffG4SSBq5w/KKCkMvhUIzRtFV3ZJBwHAsMFvLEU75pawwsY4JzOwJwV4PdfQssADKTE/D4fhSe6ZgnpxQSHoThxAEvLFu6HBt2H8GZ0LuQDQYl8frFbZw+tgdrZNdY47UPpy7ewKtkaQ88/fUDXA4KwF6vlexe/jhwEtfuv2WfUR31qYPnNNIlvg2/hIOy59/Q3QEWhaT+0UaZKqB1+GXsLVwKvafUI/nprRPwnD0OX7kMw6/7r0p2wEl5dBl/Bz6HVTsn1DP/eNU/6a+fIeLmPbX17s3LeK2GKij6UC/2eNwJC0GM7FUT5yyzeo1gX8IAoX7B0tVAZT9H45bl8TjMD9cjpfkUUAogAFIQ5DkIHQfNwa4/vTC+axU4iXBRDveZivYde+uEVc7doLXo3bg6Ktu7Ye+FNNRtZosaJs9xdvcStKpfC6OW+OFluvoCi72+D993q4/mrotwNc4UDWTXaFCjFCJPLkWzmrUw4ue9uBenPsAUjcmzYXJX2fPZivtJZeDw1VCM+GY4nK1LI/zIFHzV/2dMGdwcvd1P4KEG3rh3r57DS9noo3Ydq/eu3lCUacfJWxELC9jJyqO2eToubpqEetWdMGXNiXzLVEHK0zOYO7AZqlnZY9qKQzj991ZMHmCHinV6sY4+Lv4qfvHogaV+CWgzdDbG907CuD7tsSFAmtVFwk2ZsEpKQ+VGVh+ldZSi/ph/ao761rVQ1cpZaTyb5Ee+GN5vPZ5qMBL92KB1Z+mYXrCuY4tvflyCv04EYO2MwWhQpSZrk1GJ4sugZK16sCttgujAUNyPlxYsjjqG1W9eAWmZp3AtQoNFccEfQCLJJGC5K5n2exhJEXJCdgyh/5iM2azawSU17iSRTVfYeZN3PhBy3y+Z5AqZaFa60H6PkkkSyP7Z3UkFPT3i4PEbufcqr6cHPefC+kHE0WMreaLEEYR+HrjKlVTU+4xMlJVzopCfndS4cDK7Vx1iVmcwOXDjtZCbk/Skq2RKq4rEbW7Qu2eVm7f3fUhPCxONnLHofe4Y8zl7pp6nVf2Cao7Ob8S+m99vZ6Q9IFvGtyMGes3JKt9oITcnb+8fIUMcyxEb52nk8rMMIVc54YenkiaG+sTKYTYJ/y/nuSE7RrJnZ2zQg/x1O03Ipff6BdFDJbLI95mQI47AVR3Yf5y47ZaQ8/GQSaKJ5xC5s172gz6HjedfCWfJn8+6IZ3I5kvKaqp2+RBtWgGt78eXDSRV9fVIj7Fbyd1cdUfRlqrbf0vOiHTSomW8tm91Vrc2X0oVcsWj6Ht7Lbgo5IhHIwFAvT37fHcgR6cUvKkPuwnbvl4qPdvizy0UKk8jsj1Y+h/VhMKvLMnk6IJO7H/SzuX2W+WFEbbvB1aJ6HkL/pKNmXKQdQ2P5eofalriGTKihinzCjx+L2+FC97an5gajSQXclXU3NDzNBMA18j/mlfU+JmKEQCKTog2kLxllZM3kTtJG2NDVvZXXyn/z7T+0s6fdmLK7pn+3tLuVdl99Zc1KoVYy0iLJxERj4V34sguIPO796JI4KouxNS8DZm0ei/xD/Bnx54t08lXjSxY/tzNh8mJo15kVLt6ZNrOwhFwH0oApCXKB1y0Hg5acErlgCrq4Hj2vFUN7pThO6ch+86P3tL/k6Jfba6BV7FkAUAr9OYRrXI0HHlerXxvQjES+rTEDyRERceobQq7stw/Mo2NHmkl+dU/a4SUHUWnScuCHl1ko/PsxJ6cxa5RsepUUeVE3cLpdWo6LCKRmVnnU3fzTUNrkrLGU/Lt2GnH2aq0dAGQlnSWDC/3CRst+2ngli5GAARvcmfn2HReJ6JBUeHZlp3vnGuQQsleVy1tF+Yor+woBjSa/i8FTJh0qcKutel84Qx6tAWdsQ+q0U/pwIKS8DCMCYRVo5urnWFqmw8hAOgMRzETUlavsqPQdKjrA3Ljv7gFu7Ymo/iEKytZf1Gp6iyV9VkVktcAqD3zwScD0L6JkZBDF7lOwnunPDBRcydbpXpOaglx/dwtlm403Bm1i6EnJHWG2vjzZqYPr247Xo1DlAXqO1ZlKVklQcsm1ixNoddYO/c3do2mQ7ugiYhyqtGqGzqWNMK9Cz9ilVfOMLPJyRlISNmGI8fVx+SnesgmpaQ/k/SXTxGTnAZjgxqoVFH7RmWpL/yxct4hlnZxaycieJoxWrbvxoLMBf32Lbbm0tdnJF/FeR/5xhrla1dGOdkTUEZ5c7mzVkrGIQRdeMTSmvEcTy4nwki/Dcwqflx1Xs+wEvpuWQYXK+UL159WbYTamRdxNmlCMY9qmgK/Jd9i9NYbKF9lJBbM7QF1ro6GZcuhUgkjWVt+hhNnxVn2VLGsz15T05PZqxRKfFYdTU0MZW0RSKNiRAKSW2xM6BlY9nbO0RAjTvqwRa5PDAep9HJMj7+NiyfkMS9sZB1ecfQVTbx0Ausvy56CjHpdHVU6RFEPQPeVpxEaGIDTISGY0aOS8EmWQxWlobUVe80P46p10bDyJyx9eO3+d+ZgNN5ITZtKrCJO7fYFRi05hLsvlFtr6cEOiyOmo56+tE4qMzkZrzIyYahfFibGQqYWue67BdsfvGHp+nVElkf1z+H4ibwBeu/zz2GVohBY+VHO7DMhJWtUGloXUTKSk5CQngF9vTIwMfm4BACNX9/NuZrwLi9Xj0zDpF018esmt2Id1fTZ+RWYNOsES7uMGwYHM/Hd5sNrUfhPQqf8ROL52XmTForoRxIXkek0QEhrBB3ZL+9qjylHH8N+6G78vcVNaef+1H82zNv/zEa8my49xLAvsmYQUqAWCX9uPYJHomNnxODITE8Y9J2Mzo0qCnnq0ZONIht1G4oO1qWEHHEEre4I5/F/s/TEbbewfJD0gF8BS+zRbto/LL3cLwETO+YfVI3GRlnX/wuM2f2AjTT33TyJHnXk9vhJD/bD/csB+Csma2RRo4ETHL50QKcObWFn64gGNeTCQxNeXVqJMi0morzJLJx7M0eyADm2oDG6/BSu9Pv0f20ZZo8RXvfy/C91EARjciUnrHieiE9L/IBT8avezaToZ2Mqtsa6l29g29cLJ72HKJ2xPvCdjhrdFrP0gr+e5hDSUkh+tB8967jhVGpnHIraj44W4s1Apdd1aVS3HwzXL8W1idyEeY/DL+ecsXJ1rwJ3/kW5TbP+rYcDphx+hBL6HfHnTd9866DimdNBsbo6lp2b3sNg7eYl+vzsFKSOFTgcNNUd25cwoE9ObQhgben/E69tJo5VjNi13ucxcLE0XVz2xT56aKKfVISIVVxDrM449/dyW+O8CPUkzlVLvPs892HVoB/xOv1cOFsaCf+sYNfQZAGZom4NQKHrpZ9L0cXn/l5OHXYy8fnJjn2mbm1EsQYgm/KT8/lYFKkj6aEP6VjSSKO1BFrX6WI1vY/3cbiMV6/LVgat54GrPMiwBackf1cVRbVNU6jBgLWB/BnU7yhmDSprUZYeYhdmFet46oxoVFGQOlZgpe2toP24mJoBU6ORcPxCuWKHStF/T1xn6YLq/01thuHco1QquEQdss4Ass4Asg5Z6eeqju1TWwi/KJYUxL9MEdIflqiYWCElp0Lj7+F37Tb2/ToB3RzqCLlZRF3zxrDWNpi+S+o2dbKRlbEJZA1EeFf0oDr8hzk24jZGl1E/o6eFCVsbOXoyr00/XYfx2XCKzVa/WTpJ0pQ/NwalyqBSCc2cv2hdD0nLUFo/tXEcX9lLkiqWtuPdE9xxuORkto2lttS4RbdNA1eCDkA2SGDpJi52omY79yKywjLUblK0fT8K1HJphfDff4Glm4zojAbllF+O6v/DzsmdFIqr/p9iYlI0vDwrVywrpLIwKmuJPmNW4PD528hIikd0xEUc3LUSw7vUY59TffmygR7YESItHolRxc9goWEHVxgoW3w1qdoVvywdzP7z6tlTERCV5UGZmR6NrRPGYeElfYxYfljplpZSUCwIfuzQclk/dCTuO6/C8pGNdCKeEVVB3g27K7wDmjbIMtZQBf3Oef9/WZoOINo62LG0WMpbmsNUQ4GhiSFGgQRAamw4Tp+SL1jat7JT2bG/vXEJOxKSYaDXqNgGC6MLrrUa1xLeAYmvpYfGoNewqpul878bI7dWyZ9kmZSlM0jZiFNWxpXMSrI0De/gv20X7uTSreqblIFFvRbo6T4em3wj8OTadjYiziCXsHOvvyR3dj0DYxjr62m0AJU/ZqjpVI6lUjMu5hrJqyc5U36usUHdPI2CjvC9d1rhxrMoLOujj2ku1WHn3A7tO7Zj3sR741vjePgNbJjYXAsdnTH0SuuzmUjMQ22XT+FAN/ifN3AMDIdtx4weeWeQxRlqRUcxNugBmzr5rx+kPDqDQwcfs7SVwwQ42YuLjRUb+5C9GpcuKbnOpb14ipjUDI0MMQokAFKib+Pwm1TW6TS2rizk5iXkciB7LV3CBc0aZxUIXUAcsSZMePfxY93E6d0et5F3ojSKC2LTrIuQAv4THV/pOW4EyK2PqjVxyxaQLQU3/ebjdKh6MxZzm4HYsGcWU+VEB0uzQihhXhl1PpHXOlIAaxllUDd3m5Z1WZqO1uPjxJVH8oP7iHwrL/0GA53zzEyptdaVZvawNquBvpPX4fLtR7h8eD/27fXBtcf3cMxrFjo21FbQtkqwaiGfkaWIDFFRlEiL/xcz3Veh8ezd+EbNgjE11x0zwltjC5aiTknDurC0zL+7VFhE0tH/8OnDRIdGT3r9lL3Wq6G6H1UFSUlmaqrqna1QVmIsrgIJgLjn8ps21Fc99aBqIoX9/+eudqiU7QaDLxyDnW3+06qPhUptemKUEO0xbHegqF1+6Gh0lsN0hKXKz63Wri+mKK5xMURUYK3XYf8gUBAW3fLE43+LgAv52yKbObqgc/lSKFFKPnsQjwVqti+vRNeuHey/HsV8HCj/hkaw1/x4du3Su0bY161Lnpnp46iriIuNy1G2BqZlULZsWa2rNuSmuGVYOvfaTFEn/bWs83ddgRZL1qCXWuuZFPhvWAY9xyZFWt8tFWquXdlS/r/19fJvFxnJV7Db04+lHT1WY1R3cZZjVG30+K68NtayqsFepfAkRr5295mNlWSLrAIJgLLl5BXbSN8cZcoo/2UaCfHQEbkqI/uCCBUMV/5uAMdmH79+VAHdpm3swu/ZLODFoyXYeSBG+EQ1z/z3ItjJCdYl5AVjYNIUo2ePYNcI+WM3zsfkH+Hv35P72QjAymE2RrnnnaKf3XFM9JZzFWqZS2rEtIOzbmLO0jejxKqsxGNStTd+XNSBpc/tyf9/MLXXwX0s7eCxBP2V7E1c0rQSLv3+G45HaHnKooKa9RzZ643IKPb6MUA7/xmdh+NNJzeUS3iA569Vl3uY91SMXVcd/bsXN/WQMZo6dWdtMTUjFvEJ6upeCk6tmYmll1+ydrje01VCO3qGqOuvmJqpVjXp62lPHsrXKWzqSJ89FEgAGFvWZaOztExZ4bzMWzi0k9/y00w2GqNUMc+6wddhRxBQvXWx8wj+rN0MbJ/vwtIbJ0+BX7YFxtzQRrZy8R2MHdkhx8jTsutcdg06qp77vx1qI6w+/2clJk4PQJnKrli5bQoalM77SOmWc5v/vCO8Uw6dRRyP+wS9OreUPAquZePEXq9GvJ8Ors249fAcUp/9j3lLT6tVrYXLOqOpm++hhv1UrF7uoXREZN6iNXqWOoVBbRtixNSlLKR09mPlrztwPDCAhdxW1/GJpUrtRky99jg0SnK43w8Bbbcbxg7GvnhrlDWMRvAx2QygrjHsunwHz90nESmbPcXFP8DF43sww60hbN32wHXF/wpkLVVUqe7ige9aVcTrtA0IuqB6Pk79IlynH2f1bu9fs5S2Q1Wkxt5HuEwAlDFvgto1pJWhYqGaznZtRDqO5oAUiGTiO0ced2X07zmjgNLYGV7jvyIzvcPfxWZRREOkdutbxnQpxpEDkwmN5CkbObCogIfDXwj5WSTHnibTe3UgG1TY38vtreXXaD30tzxRBymRgcuYfb+qaKAK/wBZ5SC1ajuReT7Kg3Wlxl3ON2KoOhR2yGLtpNMT40lcXByJuLiNDG5ahtUNGpht8c5LJFqWHxf3VjgzC0U0UPpf3H86SF6k5fwhWl6Xdk9mdvNiooGG7vmWlS397fwO286jyB/+McI3pUPr4KSaZQo1BlZBoLGX2gzdSh6nZt2rIsqlsvIpzDhAlMJu0zTKbL96pkojx7J2utbjXXRQZZF/80PhN9Bu8jHJ5UjL4vsKpTSuWwUUAPQGosmuyV1JRX1LMnzuH+RYwFGyZek40tGh1zvnIhpFb6FbQ2JhP4Rs9PEhvwx3YSGOC6PSfBgBIOfJtUNkxgA7QkM6t+g+isxesowslR0/DG1D2nQeT3xVhHDOzrtryMr361E/su8vXTKV9Hf8nJSv7UKmr/HL0xkqUAgA2kCT0p6Sg8sGEEeHIWTm6u2y5+RP/PZvIQun9iO16riQBTvDNXbsUUTPFOuIonD+srZ3Ju06tH13ODs3YJ2yOqeyyMANZHiXeqSkeT0yfMoSVh6/zBxL2jWsxhza1vjk/z/Sk56SQ79+TxyrWpFW2X4/+9G2g+O7aK30oILnm+X/aFhn5c5n9BpFPSAcdezs5Kg8iu2ziytyOGzRaKC/qBhUvE8+RJtOeX6ZzBnQlFSnbY5FRpX3c20/NyEt+s4hx4PzDvLEonCSVedIqwqFo5omwoNSYAGgIC3xKQm/EMCiA16OeKn0ZmJvXmSfX4t5I+S8fz6kAFCQvWwCAq6QGCUj3PzISIont0MC2TX8A86RO0/+E/HAk0n0tbs5zqPXUdwLPa5GKX9WUqHhpGklLqyQx5qWqWI0Z9t9EbmZT4hsyqsnYWTb/3ozwURDXmePgS+F2KAF7Br98wnv/aFJeXGLRD5XXS6pcffJWVmZB124Tl5lbZVQqHzINp2WeJ9cCpS3ndMhkSQ+UfqoOzuKaLFiI//mhnqs04GF2KijudGaACiqFAUBoAskP/clfUsbE/uhu7UWIkDb0DDcP31pRipU+YFcUbFXgCoUIak1HWkpQoCrC0HNEUdxatOKUDruGoSpUAiPgtSp4rdqkwe5I46ROH8MjoYYV2yHodNbInibFwLuFI51jVQSg/9mkVabDesNOwmLdBTrTl8zg4dI/xDEyAZOUqEWYgMndkd0yCocCxRj3MtRTfFp0/8c9EJIRlcMcW8m5IiHGtJs8YtF38kDRPsb5KbYCwDa8BaHPcAc1+pCDuf9YIx2I2egn8U57DmQFQulSJFO2D4LmqDweC5lVhalZLVKE+r2m4T/fUmwc4evjm2crl2KS5umznNev15Aj1kT4SQlgqcMau58aNN6vGk0E0O/shByNUCYCXA4WoHuT6pJVMLCgO5eNtqqtEYqIMW+q/lt0ZkfT88tJPUNG2u8lsApPtDtNjWpixS6+GtrZK7RwnF2uADgaBWql6SWRy4a6srfN9SShZqKil0Eptw+Np99R8oer6qRm06L296SU1yhun8nk8oaGU0orO7y25pSDFwAcLSO3Ga8aoFHJ+8Lagn0XVdrYbPzQ+TOk7xWaZlpySTiojf5sV8DoqdnSb5drL3492mJcr+L3L4zHN1AMUjS1H+CzkapT8JVDWYOuSnwjmAcjjKoh3KXPhcx/8wulXvKfmgSHoTheMAeHNlzBkEnI2HW2gbljahn5i3EkDpo0MwWrj36o3Pnpqio5e0c5Tu1LUU37xMY4VBayOUUf1JwbGEvzL/pBp9tgyXH7tF2u+ICgPPeoJXVfcZtzN60Fl8WUSHwIUl64IvhPT3RxWsvBtoW110yONkJ3fktfvBzhPfmQahsJK33p4OGAZ324tujO7U2qNIBM1DOh8KsxQQc3tINfvuk7TGgK5S07IptQYvxdNsu2YxDyOQUW2gHfujxABz9Y7Dkzp/GZ9q58R7mnNbujJrPADgcDkdH4TMADofD0VG4AOBwOBwdhQsADofD0VG4AOBwOBwdhQsADofD0VG4AOBwOBwdhQsADofD0VG4AOBwOBwdhQsADofD0VG4AOBwOBwdhQsADofD0UmA/wOLQyzvAjFNBQAAAABJRU5ErkJggg==;" parent="1" vertex="1">
          <mxGeometry x="-0.5" y="86.88" width="244" height="38.12" as="geometry" />
        </mxCell>
        <mxCell id="IgM3bS30g-ZwomFUyN2R-2" value="" style="shape=image;verticalLabelPosition=bottom;labelBackgroundColor=default;verticalAlign=top;aspect=fixed;imageAspect=0;image=data:image/png,iVBORw0KGgoAAAANSUhEUgAAAS0AAABZCAYAAABrJ3KNAAAAAXNSR0IArs4c6QAAAARnQU1BAACxjwv8YQUAAAAJcEhZcwAAHYcAAB2HAY/l8WUAAB1WSURBVHhe7Z0HWBRHG8f/INVuwIINUWxgw09R8kkMoKIYo/GL2MCKxNhi19hiNxFrosYCtkgssUcBC2ADewMLKgqKCgoKCModHMx3s7cnxWt7AnIyv+eZZ2dnZ+/29mbefed935kFKXJEJPDXnsRMT4+U0bMnK4Jf8uUll4STc0jtmu4k6JGEL8mPOOkeCQ45QP5cOpU41TIiALjkG57J1/i8ySFPiE+PWqTfvFNEzJcxSheSjEgypYM5GbDoghZtQESCf+tGrBx+Ifff5fBlmlPkQksUf4T0KJfbsVt9t4XEC7/OYkOceJJ4WpYjozdE8SWqoQKutAmt0FVuxKzmOHL1TTZfwiiNvLywgtgYtiN+l9L4Es2RZFwhU9qaaSX09KWdrUjRNzFBJYPcrzEqbwIjPl/yEOPI8ik4/cVkjPJsxJepxrRCZT5XOnj38G/MnXYcQ30moXWFIm8+jBKMebvhmDQ4CYt+WoOHUgVICGVM/oNRMz2xe9Y47LmexZdqCC+8ipTHJ5cRl+a1Setu48kZJUOuksCbG+tIKwN9MsZPMy2LknpxRanRtHJIKtkxpgUxrzWVXNdCrWfkcu/gVPLj8os6P7ymfaZpGX0y2f8xX6I5OeQWmWlvTuz6bCGvBDSnYnlU1nWZhJMRcbgasBKOVmX40pIFwRsc9l2P+/BAnx7WfCkjL+k3/bFs/S10HtcbrUz1+FKGNjy8FYQLF+4gXZiCUuIo3/IbDHOtgX+W+QvWtvRgi/95d0TE3pUIuKG5tsX0e56Mh0ewadMdOIzvj/ZVS6Zg/bSIcWKvL27nOKLfd//hyxilHT3UgYv713hyfRUCQ9P5Us1p/HVvdDC6A/89wcjky9TBhBbPvXNHcVosgbNj6xJsc/t0SERXEOL/ADVbusLWmgl1Ri6NO3RHO6NX2L03GELFlmkDR3zjUg3nlh/AteQcvlQ1TGhJIYhD8J5TMC3jji/bmvGljLy8CjuOtTFpsPveGQ302NCQkYtpg5ZwaVUFN3wDcUtDwSOHamptutgiPWsjQs4m8aWqESC0xHhx7yJOBu7C7z7LsfKPHThx4TbeiGTj2OR7/yI8SsLlFfEuJQUp0hT/NFmNGijm6tH0OCGZL5NDj73A7Rt38VJ6XKoYFQriZ5dxIjQRVi5fo0mN4tEickSpiLwQhG1rVmC5zyb8GxqOh0kZ/FGhyO5L5MXriFNwXzJf3ceBrfPg3bcLflqwBzFpwg0p1y4EclvHNk25rS5C7/nDqLtIVGFIynr1AmmF1K50hez0VLxKuIeIqHikamFk04M1WjtX4wRP+GXhQ8SmzRy4bcjZaxoNETUSWk/D1qJ7y27wOfYEla2+wqARwzHE0xEVUiLxm1dPTJ8/Ds7NeuHAtef8GTICF7WEnvSpTFO5KlVQRZq6Tzz0gfGRIBFrB9Tj65pw9WgatTGCP/4Gx5YPRyeXkfDZuAOBJ3ZixkAHmBrVw4j5hxGfJfxG5yU16iaOZ2TBooUVvihiJSIr5T42Tu+NBvV7YvOZRFS3bQW7Ng2Qk3AWU1wao737PByPfMXXVk2O5CUOSe9Lo5r10OPHX3HsTAjWzBgMa+N68Jq/B4+SU3B6rRcG/hwI05YemDejL24uGohRi49pbD+gUE30dvgzGOp3hLVVWb5Ud5C1H0/ULVcF1k1tUL2iFWZsjvjgHmSLbmF2/3mCtQVdhN6TKwd9MPC/jdGy83is2H4Ex/9dhVGuTWDjPBT+Gmo9MoxRv5k9l7t66y63FUJF65boYmqI6GDpQ1cTYz7vRVRK1N6RKqPDqRs8YFFX+k0fuD0Tok6R4JBg8teS77mIeFpHsXtTRGKvhErrBpCNM3q/r+s275T085+QdV7uZH2w9OfkgX7v39PsuHr/9dwpyGVakNBVnbnPmbjtHl+iOUJCHp5dWctF0Dt4/kkevv4wMJP+ptBV7sRc35L87HdTpTv8XexxMuTLKtwsg41nEvlSGe9i95GedUy4a/opT5AsvVZ6b53HHiBCwgEzk08Sj0ompLLxFHI3W9dCHUTv22fepIdqZJp/7v8ta8ffkp93C3fda0PAwhaCXf2FxeuovWSkixWpYOGqsF/R+0Xvzw+rNQ/JSAlbzN1Xey36Yg65SkaZlSOmZdxJ6HP1IVEqhVZWxjky2qoCGbD8Al+iGHk9ZbEa3LQPt5rcj1L3R8ljN2jdrvMOSm/gQLIp/A1/ND9vo/1Je6My3A3+I1hxHXXQP2nHmEbc9y069IIv1RxNhRaNHqYxYPUdlpDoHFX/qojsm273QafKC71Hsxyrct/pqeS/uebbnztecKrEi6i7JClLWKuSx+JY2i1Wc+0lj9gj07iHwPB520mg9AFKH6IH/15Jhrs1IXp6lsT7tz3clKy5fZsV67SkTyW0Iv6dyrXDqg0Hk2ClioisD9IHorK+VxD6oJRqS6RarTmC2wiVD2v61OXavN8l9bGOKoeH7+5cxq7YdNQwr8KXKMbApA2c+9bh9xRhAtNKhnxeHdVg0aAcl4s+vwEBhmPh5VCB2y+IaYMmaF3BRCoxXuL8jTt8qVBSEf9INg6vXlX179QWSfo5zOg3Bzcl5piwcLQaQ7Yx3MbMQmfTZCzz8MQOBdHCjw/5YuHZRJTRa4EuTq350vw0/vobSAU6Ys7Pw8YDcXyp9O42bgIzA2Fj4HdJCZBqWPjC2gJVoDtGeILb8J1/DkvORcJ3jie6OjnDWZp69h8P36N3IUo8jkFtzZB00R/HjSZj5eyOn7Xn+GnYCgz6bhkis9tgxe5NcFYSM0njpzoNsEM2uYRVC3YggT7+1KBvbAxjfT2kJUQhLkHo8NoEJuUNuH4cHRPPlylHtU1LQvBKqo0F7QrAE5V2o9wxbWHy5Hg2OvdSHRNkoi/7CSnpIm4rnETEX07j7DVVzYumQ57zWwJfqfCvZDwYnb4uz5cqx7iWI77tVZNrNL/O9C3QaMS4duE4lzPQr4dq5or/QkOz6rA2lT0ozgSF47UGDU8ZyUkyofeFZQ2U1x2ZJaUiOs5ejUFKHnpGZo1gUzMeAeeaYcNaT9TQqd8mjIzH+zGm/0zckORgwLLf4WGnWomoUaM2t40+HoSIp9lcXhVGNSzQsKwxciBCpkBHhh6qomYDWb/I0uBclULLqJYlZyC7EzgBbq4TsOd8tFKPXYv/rcJC97r8XuFQ2aJ9kccEZYsykCrJhr5eJZiYFH6rlYjCsHf1WS5v9a0NqmkQLkD/xKatanD5qKD1OJknWpgaUOMfv+X3lGNQuQqqGckaZpZIW4EuIyP9Dbc1rmCqU5oIdad3+uY/Sq/51c118JoYjck7Z6PZZzyPkjpSNv88EYfiRChrMAhenm34I+oRZx9G3FPNNSeh9QtyJzqGzylHj44R+bwCxAhc3AtuM4P4fekJepZw7OSMjt84w9HeDu1a2aCims5OvYPrBrTFmJ2PIR3H4+TuIUq9dMLqXsPkal9jRWIa3OadwtE5HfkjmiN6th89G/bD6cxuOByzH13qCBOSby6tRKV2E7m8b3gmhjvkf4K9ubYK9dtM5DRWl8mBCPDpqlHHj9o9DE37beHyP2yIwnrvxlyeEjCvBbrPjYRxmW+VXnNWSjCG1fsGO1JF6PDjAQSu6wX1Op5iqBfYbVaE4HtMBWzI1s24nqj+Sa0NX1h3gcd3zbUSpHSoNOb3LCz1nYJGHy2wxLh6cCtCH2ju7o86tRQBz53gLW3rmv4v2v7eF6cXw9ZpFtcGu04PxKEl6tug/D+nKGrXBcnbFzWpXxBBbYyzbKmAGsn8x3eigk1hosbMAVO2kUdvlBvfcshLsqa/JVdfvSFeSN2rZGLVClxd6mnUhoynMgOiVACQY0+ET+ZWZ4i/u2vo++NCrjHvea6z8p+XcGrRew/r2jOKTcd5nRTaOBjyQo3GQq+fQr2OdJkf+e8o7NTCeQV5ooUh++aBKeT7oVvJ80wtTlZADnlAFnaxVniNhZmoE+eBwGumjiY/rwbvP2P5sVT+iHLkhnFaX1PjeN6+qMohpQwhbUztI4aq2ANWnsCjC3swc5grGloY8EdkEPIYf/sMhovrPNxK0734ljLlKkmHUcUTUKotL+/F5LNJVes4Ar8NseHyhw+HKIy5unhwCy5kZsPBcymG9ajGl2qHafnqfE4YhpVdsD02nT4YiyTdDJ6AOoJG9GKcWt0XSy65YMvmwbAwFHSyUmhw5cxjDxReo7Ik7aTcSEL6UFZ4XFF6GD4d1gKvWZJyGaH/POPy5Q298WVb9XpdtugJrp+UxWmVM+wFmxI2bUtjvdiqXR8s9AvC/edZSE+OxcWQA/h96qD3Qox6qcZNOyx47tGnJq/tp6RS0ABObV4DFy9Aj3JGOLn8Fyzdf58/IiPi4FRMnB4Cux5LsKUQDMxyo6wuQ4eqgYvd8Xf2JGxb7Kr1UFnXyHgUicA3Yi5f16kV6lVW3+XfRVzCwRTZ7IyGvRzQSINz5HysQ6tODZktVxUqr+bdwxP4K+Qpv5dLucqWsHfqhbG/bUPUk2fYObMzVx624U+EPNC1ORDG0Kug/9EGRGVY1GnI54Ck6HiNvXgiSW7F6hZVPrBBnP97F74PfYYbAR64u7wHrJo7oVMXF3zVojYG/JaIYbtv4Mzh6YVgr5EKSQNjbht/K7/GpytQQ/TOCUMQXs8HGyfaa2UD01n4CABKHXsbjR5gYSd2cudIh4b43sNNo1kikpRkvMzM0sqhRR8orxNkzqIK5U25rSpUtmjJq1tYuf6kyoaqb1ANfRf6YU1/S2TmHEd0zDv+iK5QTapFylYfFecRFIVFWRt7eFQy4fLpL9TNu8zlefRVbktjsboViMWiRs/A9U1h/x8zNOs6Fv5h9/DoehD27tmHI5ficOv8Fozt3bzQtAmLOrJVXIn0eSRk+k9JIEfyBOtHjEVStw1YMED5arQ0pmuu6zzBa0LpErYNLficcqi3+6hfFJe3cpiAvj2qcnl1ZL9NlQqtbJgaNEbdWkIflGKkvJJpg1Z1PlLTojw4eB73U1RrINyaOj2dubyJqayD6gp0qFXfthKXj4lL4LaFiWHlDhgw9UsuHxtyAfeT1HvSaAcKD5AF2TXpOhKdWuUfvoqfxSLyRQJSUnM7GNWGKleurNaTqw3y0JcngTFI0aFOTTWsDSN+QFafTRjXRXXni9j9B660boc6GoSk6BIGZtW5IGOKvoH6vhl9yI9bzaOMnj1mrh6j8YoemS+e4KpIgnpuNqgs+B6+RMzFFM4b3qC2evuZWqFFZ27vC/xwiKgIOp6tXePjhyPFTf0mMqGiSYyIcIzh4j0Dnpbl8E6yHf+ekBlFVZF+8wz2X33NNZzxsz0+UOmp88Bcbxu274zkS4oW41qN0dyiLN5m3cCTZ7rhbKEC68+hXXHCvD+aG8bhKW+jUQQNfxg96Qb6ubt8dkNH0wb26N5ettzS8wTV0eaiZ0cxfcpOblg4ecdfGKaB0V5OcnwCN6Ssbmsl2IYqSUnAC6mmRbU0S0v18kMjCbN72VqVnkE6Jg0/eQaNXPvC3jq/d1E40rEtP0wTMhwRp2VoPXSpad0CTcvo4/mNGI2mLAjFyNwFy3cvQCsDfWyaPAXHYpRrW5L0K1gwZg6iss0xwXe7wmhug8pt4dSnFtaP7gLH/hOwzGd5vrTcZw3+CQxGSGg4ohMKY7heB3Zu1Tm7X3Rs0cRcFS5iBC32xuxzdVDPNBW3b+2Bdzsz1G/eD/M378Wt2NfcUj4RFw5h6chuaOU4GZajVsNdTZS4LkI9m55Th8JMqv1cDzqPOCXtm7a7Of2G4HBcRUzYcALzVQylFfHw9ilu27q5FbcVgtxZ0Mi9tUbB19SVqhR5DFKlBlbEoccSEqVgZQLK9R3eCleCeJucTJKTE8jVQB/S0dhA9lkW7mRbcCR5IT2WmpEbcyKve/nAfG5CJ61LJ2wu2xfB1U1OfierKIXWfZ0cS05smshN5C34uXnragKNMZlUvxKpaDROoxc25GSJpN+RTF7GXCSrRnfgvp+m3tO3kciYV9wxURZfOQ/yVR7oZNX9EUl8aS6ihDNkes+GXOyb+lUecldyUJe+sHYl038/JniidF7kcWM/aPhqtU8Jfa1bK6dfSESe9pqZfJl7T1/Be0PTl55bi/21dsU7YVr27lFzvepkqoKVTN7FHnm/6kPBFUM0QR7XJR1pkUP3FTR8NVzfMYT7HzRtW2qFFhUGVBjF3/qHjOregXw/8meybf8JbhmZrX/MIQOdGxPH/r+SSwWWlJAHidLgNLuvnYlL59zUsb0sEE++KoSquk5OzbhASvkfLA9iox27Q556NMk/V3hjEJF9s1pz369JYJxcmFe2bpfv+2lqaCETzso+JzP5Htm+YAhXz67bSPLL0mXER5rGDe1Iautbkj4/rvrgXn6IiESHbpTe+3qkaXunD65Bnto0NOauRZ7spA+ee1q+q5AGq9IHT/F1NO3ISjtLvG36kRAFgcK0c/ZtUv79/aBtaPTqi4KW6Sksin+VBxG5tGsmcW5US9pf55I9ASfJsf2byZgBdqSmRUcyefUxkphHiRCCfOkimy7rBAt/+SorQgSeSqFF36QcnZi/kafE3uCW96Dp1Pnb5GVaCW7BApBHmatbhqfwEEk1tdx7efnus3yapzLoU83Py457Km67pP6pmJX2goRJtVf5m7D7aLn8Cv1e+lbp8obe5LwSjbskkJUWK9V23/J7H5Kd9YJcCg0mISFXte6khUHxCy05IpIQdYFvd2HkQfzrj16OR/7CYiGv3pNDl7UaXqUsse2mucBTKbRKE/I1hEr6mlH07c5UI9RkOkZe5JqSpkNgRcQcHM81zrn7Pm5aEONTCq3Chq7/ZkPKGgwip18KnwYnF3hC2pTuufqKCLqGkMfEHlq/Cqk4oKEQR34P45a4ceukeLkVZZg26Iw+vWvhbdYp3FKxlr8q6rh6YEpbM/zju69IHBalCWNDUxia6FZ4kCLEScHYtfYhus8eJvjVe9SBd3SXP+ra/YI+3TSLB6MwoZWHxn0nYaYjgf+OoyV0OpIY5CPmd5qYlIG+XhVU1HJRLPoq89G/eOHlsQ35lsthCMdp4mmc2Ni3yN9JUNSc91+Lw+9c4TW0g+BwEfry3z+2xsB98jDYCHn5L69xMXhehC0mNgYtNV5mtnjJdRgIHR7Kl8NVv9yzajhPUX/Lz2Row/gYxImyVTxGa+FRlhngWwiyZclhQusDROToXGetbmZxkJUmc91raoiniOJPkHH/NXvvCf5YqAB0NbUQLDgZnxOydxlo+xCktqyq+vbkr2vCl7FhQksBcsGgzROkOMjOeky2TvuO1NavTnqOWEVC7zxTGBeWEnuR+C7oT2rp65H2fX4lN18Wntfvxq4fSN1a48hVLUMoGLoNHZG0qKXdQ5D2r7FtLJW+uEUdalYuLb3QNbX7O/rgm93Hlb5Y41MjSX+MyydDsevwToSfO40kYwc0sNDn3ocYdVcC2+YOcOznhv91cYNt7cJ+X6FsVduFUf2wb9vgz3p9dUZ+PqZvyKdXnbVah21ztHuRCBNaKsh4fBTDe66F25Y98LArLSswCUGMoN/6wu/ZEPyxuhcTXKWArJQrmNVjPKwXH8QIR3O+VDOotzBocV9sl0zHJqnA0rZHMaGlhqyUSPw+9zzcV3oLXCWz9BB5cDYulZuK4Z1LpkbKKCzEOL52LiTOs+DWVPaaPyEkhvtiU2w7TB6g3br+cpjQYjAYOgWL02IwGDoFE1oMBkOnYEKLwWDoFExoMRgMnYIJLQaDoVMo9R7+9NNPOHToEL/HYDAYxc+CBQvg6enJ78lQKrRWrFiBs2fP8nsMBoNR/Hh7e6Nbt278ngwWp8VgMHQKZtNiMBg6BRNaDAZDp2BCi8Fg6BRMaDEYDJ2CCS0Gg6FTMKHFYDB0Cia0GAyGTsGEFoPB0CmY0GIwGDoFE1oMBkOnYEKLwWDoFExoMRgMnYIJLUaJ5P6haRi14hIy+X0GQw4TWowSycNbQbhw4Q7S2RokjAIwocVgMHQKJrQYDIZOwYQWg8HQKZjQYuRBjMTHUYhOeMfvf0iOJBUvknL4vdJBdnoqXiXcQ0RUPFKZke2Tw4QWg+Np2Fq4Na6CavWaoqFFOXQcth4xaQU7qBinVgyGX3gSv//5QvAGVw76YOB/G6Nl5/FYsf0Ijv+7CqNcm8DGeSj8z37+96DEQteIZ5RuXl5YQVoZ6FMJlS996bmVxOfwlaTEnVtOvh20k7zKU1ZUBCxsQez6bCmW7yrI66i9ZKSLFalg4UrWB8fxpTJySCoJWNSV6KEa+WH1RSLmyxnFB9O0SjmZScGY1Hc2jL+bgz0BJxEcEowTATuxYFRPPPYfiu/6/oZ/Q0Pgv8wDblPeYNEad3yhx5/8GRJ5ZBqcm7lj35OvcDDsKH5wrs0fkaGHiug6Yxlm2OfAd/xYbD+fxh9hFBu88GKUUkJXdSb95p1SqDFkZ6WQiPMh5NjhpcS5Tl8S9EjCHyl6PoWmRTVJqnGW0bMnf13L5EsVQ+8b7T623dbl00YZRQ/TtEo51WwnYP6Ur2DE7+dF36ASmjarhTuHz6H/7k1wtSrDH/n8yHi8H2P6z8QNSQ4GLPsdHnaG/BHF1Kgh08Cijwch4mk2l2cUD0xolXJsOnVDQ1PF4z1JeiQWeU1G+WE74OVQgS/9/CCIw+afJ+JQnAhlDQbBy7MNf0Q94uzDiHtaurypnxr2stZPzLOwv7Az/CW/V7iUMbFEryH/g1UF4UaorJQrmOP5K2znb5VqHeX5Um0R4+rBrQh9kM7vqyfq1FIEPHeC94C20PTbv7DuAo/vmivUGlXx4vRi2DrNwitpV+g6PRCHlnRV+xmBi1rCbVYEl/cNz8RwB9WaGaMQ4QaJjE8C9UT5j2+Zz2NXmKl8jY5kd0QW/22a8y72CPHqPrTQbFg55AFZ2MVa4TUWZqrvsIQ8yBRmYKL/gZ9Xg/efsfxYKn9EOTnkCVnTpy5Xn3oR/S6ptn8xChcmtBj5SLqxlrg5TyOXX2bzJZ+G4jLEZyafJB6VTDgBVN7Qm5x/rf53Z2WcI8OrlBV0DqPwYDYtxnuehq2Ax5w3WHlwMdpULR1NI+NRJALfiLl8XadWqFdZ/e9+F3EJB1MyuHzDXg5opME5jMKD3W0GB41PmuBnhs17p6FRhVLULCSEs2VR6tjboIYG5r+wEzu5c6RDQ3zv4fZZx62VRJjQYuDm7p/gE+6MLZsHw8JQeQ88tbo3Nl/O4vc+P2wbWvA55UhEYTjqF8XlrRwmoG+PqlyeUXwwoVXKubl7JH696YZ1i11VeuloHNMfGxqidTMDvuTzwMCsOtobyeLP9A1MuK0qog/5YW1MGsro2WPm6jFooMfUrOKGCa1SDBVY/deY4PtOhoiNfa10aWMa/jDXayrKefVGKyUxXbqKaQN7dG9vxuWfJ8RzW2WInh3F9Ck7uWHh5B1/YVjbjw0FYWgDE1qllMSLKzHU8xhsm5VF/O27WD/tK1S2aAqvqRsRdP0hUlJSEBd1EX+vGY2vbb/EP289MPtHe/7szwc9WMNz6lCYSTWm60HnESczb32AJP0K5vQbgsNxFTFhwwnMH9CIP8IodngvIqMUkZV2loywcSIbzyTyJbmrF9AmUTBVsnAv1nmHlOKdeygigb/2JOZ61cnUbff4slxo3Jp81Ye894zxaWCaVqlDjMOLJsH8l60Y4WjOl8lXL9gIPy87vkSGQ5+VuHh752c97xAwRtdpuxGw0wtXFjnjqwHz8E9gMI4f2IKxA1vD2sEH5b9dj0ePAvPdM8angU3jKXWI8eDmM1i2rK90qsrjm6fw8HUOqjdsD9vaZfnS4oVOk5l5cwJO7h5SzCEFYry4dwO3n7+V5k1Qt2lT1K1RRfDUIEbRwYQWo0Ty6YQWo6TDhoeMEomxoSkMTdSHIDBKH0zTYpRIiESMNIkRKpowNYuRHya0GAyGTsGGhwwGQ6dgQovBYOgUTGgxGAydggktBoOhQwD/B3OcX+LXQ2ewAAAAAElFTkSuQmCC;" parent="1" vertex="1">
          <mxGeometry x="-0.5" y="480" width="211" height="62.39" as="geometry" />
        </mxCell>
        <mxCell id="IgM3bS30g-ZwomFUyN2R-3" value="" style="shape=image;verticalLabelPosition=bottom;labelBackgroundColor=default;verticalAlign=top;aspect=fixed;imageAspect=0;image=data:image/png,iVBORw0KGgoAAAANSUhEUgAAAXIAAABlCAYAAABQgGieAAAAAXNSR0IArs4c6QAAAARnQU1BAACxjwv8YQUAAAAJcEhZcwAAHYcAAB2HAY/l8WUAACLvSURBVHhe7d0JXI3ZGwfwX2m1hixpSAiVrYYUssVkGQZjHyGyDMMMssyMiTFjmX/EjOz7ELKNtWzZaywZssZkkkQqiqK987/nve+l5d7bvW1anu/n837ue899627vfe655zznHA0mAUIIISWWpnhJCCGkhKJATgghJRwFckIIKeEokBNCSAlHgZwQQko4CuSkQCS/eICIBEqAUiQ1LgzhMRniNVKaxYQ9RoK4r66Ul2F4Gqf+eUKBnOTbE79FGDhmN2Ipk1Wu2AdecP58Pv6Np9enLHh+ew2Gj1yL0Dy83+kJDzFv4AgcvP9WLFEN5ZGTfLl9dDYmLdLHmhNuaFZJeb3gXVwc0vSqoLKehlhS+r0MWo2hQy7A1dcLjqblxFJS2gV5T8TodbWx/VDun4vsEsMOYHgPT/TefAgudpXEUuWoRl6MpCe8xusS1DwRfWU5Rg8Mxlyvn3KcrMmRpzGpR3d0bPEJNDQ0hK1C1ar45UC4eETpxz+QY/tsRP8NGyiIlzEth/yORd2uYMLk7YhU8yOtbzIA67f2wbpBLjgRmi6WKkeBvJi4tf9bmFSpiqqVamPK5ltiafGVlnAJPwz1QPfN7nKDlJZBCzjPmY6x48diWDsDsbTsYAjHqilToe+yHC72qtWqSGmii8+mu6N9qCtmLL6CFLFUVTXaTsJvU+Px9Ve/4N9EFb4JeNMK+bgy2B02o0EV/m4Jm4HuTHY/PUO8tfjJYK/Zjm9aMMueq9lzFR7m2xAvZqtTTnhurl5hYmnpdnZFL1a9zlR2/U26WELKoqjLHsxCuy3bdDVeLFFdWmIgm9mmOhu+8DJLFssUoRp5MaFnqC3uATqG+tAuxs3IUX7LMG21Br77aQRqq/A4NfX0ULlc2TnV3j3aifmzT8LZfQas1WwfJaWLYduxmDEqBgu/9cQjNbsjy+l9ikk/OsF77lTsuZEqlspHZ1kxoAFLzPhzBUa3awzTZkPwx5GZaKhRPCM5w114/rwGNR0n4HNbajLIjuEN/lrxG+4aTsdX/euKpSQvYq6vhtMkb7xSL/4VKxqojEHfzIDu1R+xdpf6/UMmX7hgTpv/4LHYS+nrQIG8mKja5Cts8X+A/27vxhCrimJp8fPk2HasuRSDQS5fqlQbL2sSgrywdO0ddJ86AK306QXKj5iQQPhsuYeoEp5YV7Hl5xjjWBt7l3qpXSvnlbwvx3fCrX3L4XNTca2cAjlRGe/A27tuB1K1p+CLnjXEUvJBMk7t24i7GfYY2v9TsYyUdRqoC4fBnfHkxgr4nlV/qFCTzgPQQecevPb4Kew0pUBOVJb46CKOnnyBFmO7oBHVNnNISwrEGa9/UaelIywbUboh+aBJh95oq/MS3vv81B71qd/QHp871MSlZX/hn1j5oz4pkBOVPTh3AOeT02Df2RrFt/Hn43npfxKrQuNhNbBrse3jIB+HfsOWcGhVFTc3+uKOgmCsCK/Rt/7MEgmp63HmYoxYmhUF8gL2OiwIZ84exNqly7DMfQOOnL3+fg6SlJhA+F6W/0ZwfORjnGSLCYvM5Vs7WTiOb2GRsWKZDL/tBe7evI8oye2SuFsgGKIR4BcIbc1OsLWqI5YWroyk17h9+Ti2eXqIr2UAHsUkireqj7++/wZdRojkNXuTlLWtMj0pCmd3r8W3Yxzx1aTfcSta/fku/rnsK1zatzYXLkumZESHBUteo3fi9Zwy0l7jRRmbN4YP1nsZ+QC3gp/nadCeBhrBumtNIRgHXFO/ecW8mZ1weebiP3KbVyiQF5DYB/vxdbeWmLHtFmDQHENdxmLsuL4w0X8KL9f+mLBgLgZb28Pz5F3xL6SCvcdkGflYVbI1aboGTzOyniw8kK4aXl88Vk84jm+T1ksHD/FsiRPLxqKbw0S4r98B31O78MNXdtDXqY9xCw7jear6J19m6UkPceN4NPS1WqLeJ4XbbJAa9xDr5wxAwwZfYPOFaNSybAWr1g2REXkRMx2awHbwzzh5+6V4tHL8dbnmPRcOTfTRYfj38Drpj73Lv0PrBnXQbzwP2O9w++BPGDhmLWJr2WP2AldUuDQPw0etU2tEHu8/uBsQIXzRNTItL5aWLE/9V6FXk6qoWd8cZkYV0EnymuScLyQZ5zxGYVOA4gpJacHPncCD7viqfRO07P4dPP48ipNHVmCSY1NYdHWGl4LasXy6aNDMRti7fue+cKmOyo1a4jN9bYT43UC4vA5TMZ+c5EN0oAez0mnLNgS8EUtyurFjPKuuocF6/XxOLJF6/TSI+Z3xYwc2T2ettDT5O8Sq6bnJGRCUxB4HnpUc68PW/zBA+F/8WP7/MtgTttplMFvrJ3mLM+EDd3bOthKOa++0i73MxxijNzdXM/NymqxV/y0qDQLKLPHpfiY5CYXHkduAoIjAVayLsQ6zc1rDHr3KOZiGP6ezKwYzQ00T9v2mIKUDJVLjb7F5/cyYBmqyWdseiKVSKbHX2MwOhsJj6jPHl8mGa8gea0M7D/ZEjeeZEnuajaiiV+wHcynCB67Izr/MWzunrVne7/BLy1jfkfk7l1R1f7ezgs9C4XsVvI9NdDBllYwc5X6ufBb2EM6rCb9fyXWwjkyc/yLhNbXJw2cxg11nk6pXYPrlBrOzz9LE0g8okOcTD6LufYxZh6//eh8M5JEdlz2Qf5DE9s+xEN7o3E5ePhL0RxtpEOrx80HJSfWVwi8R2ahKftKt9FP8RZObx0dnC/eX2/OUR9VALgsmDewWs5AMZWc6f62shOc02ytrgJaRjT7l99lFwWOOPO0mfCFWMRrMzjz58OF4/TSYhceqNyJT9kVnYrUol8de/CRHn2ZOJhVY20Hz2R6f00LF4pTPLvbLpC+YsaYGsx20hB2WlO1w/4o1t5vHbhfRaNWPFchvHZklnIc1zEYxv/9yBk1O9hksp2GjtAKX2bvH0s9BTWM3tc8RHj88B9UTzvlNV1PE0g+oaSWfUiJv4cKZaFSoXlVpB6CQgvSFrXhNHl3oV9QS93NTE0YNKwh7IX+vg4/2FIWzpOk3bArrSnqS6lUU/r55TyxV36vIEOGycm3lzzOvpHO3uCEozRDTfp2cS2ehLnp9Mxfd9WOxdIQTdsgZ9cbzuReuuSPsd+vRTu5jrt7+M/Qz0Mfr53uwfMslsVTyHI2b4BMD9T4a72IiIQk4qNbICFUl73ZJEuD1G1LHHMOFPfMwqKcDunbpim49h2LuqoN4khyL9dNtoJtwHZv/SIO7nAnSSpOn/h4Y2X8pbqe3hof3BnRVMNkZz+/uNtwK6ewqVvyyQ6VmOE1dXehqaiA+Mhjhker2MehBTxIf+Oc4JPS5WPYBBfJ8YunJSM5gCNx8AJdz6Y1uYF7wucVPTqajez/l/1dPU/o2xyUkCZd5ERn5r3BZt3Zt4bKgXdq0GBsfJ6CK7ih065z7V4WusT369qsjfJCW/LgxxwcpJNBPCKxcrRpVhcvsyukZoLaZtD37yvozag/WyCw2Rjpqr5pJbVQsYQkrNS2nYcHMjtARr2emqVUF5s2Mce/wJQyTBLbSPIsjn63ym2E/4mZaBoYv/QMjrD5MmyFP7dqfCJchJ4/j1tPcZynUqW0Es/K6yEASUtRMQtBADdRpKP1cpMr5Wwrk+aRrXB/Njcrj5bM/8LnNAGzwuZMjI0Kmss107JrVUbxWMAyMbIsgZzkZiQnSs6dSRX3hsiClJflj3+8XhX3TvhaoqULqHj+xzVtJv1SCj6/F6Wyj3mRfPMp9+GWT9lLyAcl7HJe8Pm+ES91K+nIDYnFm0a0nzBSMC0hLuI2FLq6oOGaHynNjl0S8s3rz99NxKDwJ5bVGwsWptXhL7pLTDyP8qeo1bHWPz+5eSKi49wEtLFEA+CTyDsPW46X4UmpIAkSrLu3QuUNPdOnyKazbWMNYhWqa78KW6DX3FqrpucH/7Xw0lfwMk4dnsKwe3gbf7AqD1aAtOO09GtUU/HuGf+BaszM8ouPR6+dzOObWSbxFdZnvz9UrDO7D64m3qCYp4gC+MBuKk4mpcv/+zT8r0KD1dOH1c3D1hY97D5WCIc/4MR+6RdifsC4Ya8c3Efa5m17OsBqxVdjfGJCCsXY5a1d83pif2nbGwqsxMLFaBL/rc/Kc/y177/LyGkf4b8eugCjxWsEqp2eCfqO/hGkl9Z9Xalwg3JyWwHLBVkntNP8Nauo+z8g7+7ByR2VMXdwdtVR8X3QNbeDsbK9289+L84tg2WWucA72mOOLQ4tzPwdl7zmn6BzLLPNnUZXjs1N6jgkt5SSfkoRMClkmSfaNd1DYD1vCgqKUdxL5/CrtnMu9szOKeQ4zEY6VBHKlPeC8t3t6jUrCsYo7WpXLfH95mYY2t85O3qnFb1P3MWb+O8e5Wf+Od/J20tUSbpueLWNFJjXxEhtbtbxwjNOyy2Jp3sjeO3VfY94p6/Vdy/fPo6C3irU7Me9bqeK9qe7d46PMpbczO66gs09dQgaVa2u5j7EgN4M6o+RmdSjDH9sml4bv/8eyE6/FWxSTdT7y4xV1QGaX+bMoCeRiqeqUnWPUtFIgdNH5W2/ce3gC/5s8GK3NdMVyKd5BcXHXHHRsOUzlFT+KF10YVM/6nIqbqAehWWaHK9/wS7gt6C7sn9jtJ7cz6umJfdgU+w6mdvMwa1wbsTRv9CvWEvfUw2fHG778Jq9QFcoW//wcBjdXtRNdii9PN3DMRUzYsrHA2sT58xzmfk3uY1S0Sb6ohV+nvK9D3u3yttiIrehspN5jTou7hrN7I4T9itrj0a5N7vX59KQnuHFamkdeQbsfLD7ylAwUyAtQzUbdMdPTG9ceJuFtbCRu/e2Lze7fomtjPeF2nh0x6Sv3fHWqfQz8Q1ittvQ5FFc5OxklX67Tf4Fry6q45zsfbsuvZhkt++z6aoyZvBr1bCdgWwFkYsg6vko6nrUxwu0Nlh9chNY1ykZ4SPzvNnzfJAv79bq0Qn0VMpbe3bqKg3HSUcZm/ezQWI0sJz5orIZh3prwOHkJBxTI84m3I27bFZhj2Gx5g1pobtsDzq4rcPrBC/y9cRyqa2gg9O/leZoB7WPT1ZZ2csrraMkvo7pm4h6fuvS5yvNPJ6V9OLCWUdUcbZpPju1ABbcgPLq8FNrnx8PCzBbdPnNAZzsztB99BG1nH8E/F9fAvgBqnRpa0l8sz+9k/WVQkvCFtKdtqo7N+2ajcVlaEENyHsn6t+raWKg0PbP/qV3C3/D+sIEjeinso8osLS4WUSmp0NSoAj01FyDno0xfRUqzzuQlHFAgz6f0t0+w9/uj+C/bkPrMeI3WduxK/Dmvi9DMcifkmXhLyVHHxEK4TFe+UEmelLewwYgq0hp/wotYldc3fBZyXbgsp9ECPbtYC/syvIPWxztC8jO5DkzbOmHVoZt48u957NuzH4dOPUTobV8snvIZqmvlvWaUmVHdxsIlS4Pa6zMWB0He38I9oCu2bB4FIyXLU537fQA2XyuEk6CYsDQzEvcU41lWxzYFC/umdtMwpI9qUzqnv30tCeTp0NdqgnrG6obeZMS9lP5qMK1LNfJCkRZ9CIFBuSWG6qJDz8+FvQpqfhsXB3VMmwuX2duiC4K2QQcMn9VO2H985jIexuTej8AzTgJ8pAMjmvaYiG6tsmcAhOM/v0eIyjK5ky4MDAxQpRASvXWMTYS5MJ74hiKuhDWd8ayrJUG9sHqRo9JsD55nvXKdGaybqdfmXtxpVa8FWx3przJNrdybEEMObRJmuSynYYMff/9G5UynlBdPcD0pDfV7WcBA7eyoKIReiYNuub5oKGeuIwrkBYCxuzh8JEDlmphxIQ2qKUy69RqjTwUdhB0JLYQVW3ThMP4HOJlUwLu0P3HklLTjSZmEoAs4cP2V8GGSv3aoLvTqP8H2nT5qz/+cF7rGTYTxBG9TJTX/iLznCBc1HsSHeephYDdtPH78SuE5zJsQ57vMQgWX0rfykX5DG/S2rS7sP4vMOWoys6SIY5gzc5fQpOK6YzvGqNAxKhP7PFJojqllaar26lppcZF4IamR89q8iUnOsK3pf/YMzpwNeD/VKsmbwws8cDaXjJTrF31gaDwLXe3zO7AiSWjX49T5KZ8cn5jnn/06teujhWVlIVCFhRV8oNIxdMAy71/QSksTG1xnKs3uSUsIxC/fuCE43RDTNv6JkXIGqvAh1A6DW+Hk0n7o2OtrzHdfhqXZtj//Oi0598/gjpIAprq6sOpVSxjsEfK4ZGQmRV9ZDmenE7BsVh7P797H2tkdYWBkDpdZ63H8xiNhmuTw4CvY6TkZnS3bYe/bEfjpa+kMfqUJn2LWaZaz0Id14/jfCFcQCvl55zZ0NA6HV8a0daewYLi0OU1Vj+6eEy6tm5sKl+qQdcg2Hmwtf8DcwInfM48/trP7ueQ4E/lkOdJ6teuzFl0mKpxkh88aJ2+GxLT4OBYbG8vuX97GRn1ahZ9CwkQ8v3ldZU8k5XHxH5LE30qux8ZGsmt/LXg/Ux0/dun+W+yFcNs76YES/NhXsY/ZqQ3Thcmc+LF8cqhtfrdzHKsqn1/bCP9HlTxbnlvPn1fM82Dm/etA4e/4ZjdiOfO/FyHc9joxZwK8bPZDPmHRgVsxYukHSZEX2JwvzJiGhiqzH36Y4TC3Tb92UzZxgbfcGRdVJctrn7AuWCwpvlLjL7JxFl3Y+gvRYok0n5rP6pf9teEbP3cKKqdcVUU7aVYS813yBTPUqJVjpkyO59XLZkPM/JqpSpZ3rq3ZiR16qH5e/40do4X3QdG5xXMvST7wQO5YQRqgeZCZP6Qjcxw9ja3beUSYRc57swebPNiSWff8jh2RE5hkSf7mtl2YQ/eu77cuXZplmfZWNiiHDz6w6vzhuMzHygYHyQYe8GDXIdNxfOtk20i4v9wGEskTeW6hcD99VBj0IvuC4wEy8/3zrbWZrvAYFA0uSol9wP78ZTQzM9JiVj0nsnn/W8rcJdtU507sE00TNujrFeyqCoM+nt08xL4f0ozVb9Y5x2OQbfbNjYXHItvq2U5gF/IYsGSDkPLy2hYtPnukDfveO+frzwPOJhfp1MeyzW7Qchacjy+4vCraQM4lsau7f2RdGxsz+2HSmSBPHNjMvhluxeoYdWKuv59g0XIqH6qQTXNs8dlqtaeBls7k2VjplwAF8nxKS3zBHoS+Fa9JxUc/YJckQZwH8jNnrrPwPNR+iyM+EnKyaaUinKo1iUWF3hReR75dux8htxafk7R2VUPThv2yX/6ozszSE+PY3bPr2bB2BkLgymsglk1VXFF7PPv7IwQ+1SWxhzcfKf018/gmn/vej90Jz3puF6WiD+QySSwy+LJ43vmzf5+/UnnOcUX4lMn83Ppmk/q/1mQjkC17Kv4SoEBO1HJmaTdWTqMF2/6P+kOMiwqfO53/cpisZhMHb25wqV8xzz9/udCD3wkf2Pn7X4glJK8+XiAvaNK1BsprjWTno9T/tSf7ElB2TlHWClGL3dCv4aB3H157/Aqgg7Dg8fzx0/v3IkGzD/p0bySWqkarYgcMcGmA1IzzuHP/lViqnrqOIzCzTXXs3bhfraXiSE58kJVWdUBJWnuJkBzjh92rHqH3T2NgW0O9wWd8INCx3V6oZ8Xnilecr06BnKhFz3gAvl/cHReW7sLl6OKZnZGUlPfHJRvBqqeXtykJyul9isnzXBB1Yl2OqXWJepp8uQIPg+fneUbK4uJvr1U4/M4RLs4d1J7imC+QsnJrKAa7joGFkrTPUhPIY66vhtMk7xI7PLok6TD2Z4xtdQSeay4Vu1o5n6e8nWN7IQ3wyCnpqkaq4ullB/c+RLU642GXj2lb6/WejHlD4uCx2IvOx3zRLZTBW0UpRVIb37z8PFxW/w+f1VW/Nn5441qkdvfEjGG5TB0tNrGUeKWnPa1keOG/iFnqOOa5Lbkw8U7HVaMthNRMVTo7OZ4p4yH+japrMCrD12d01DdSMVWTlE7StWVzX4NWPt42zjvsVemPokBO8ihJyDlW1pP+MfGUrXOeY4UURr6o8F8BIXIzXniG0b6Vk1i7OtrMssu37Ni9BPGW/Lu5ewKrZzyVXS+ixYpJ8cIrOy2M85Z/z8dATGltonBx8exKzQpBfLWY9qPrKl1ZhxQsvjzWGuceuGi6GtvcOhXLJc4ykl7j1uXjOLr3AE5e9MftxE/wqWkFyWNPwkO/CJg6WMO2W3/069sb7ZpWE/+qoCTDd1E//Bo8FPu3jVJ7WDYpufi8NMPs3fG590m1l8jLy+eKAjnJF37SbRk3EJfNV8Jzuk2xDOYfVzKO/zYEmyJGY+Xv/SiYlwF8Xpq5fb5Do0UHMc7eUCxVDW8XP75oCP5Mm4MNkiCuak+Nyp2d7+JeIPTxc4ULC5OySQN14bzhFL7S3Q3f+7nNAFkW6aLH7INw63odx07Hi2Wk9ErGWa/96LT+hNpBnIsJ2IMb9f8n1MTV6W7PtUbOV9F2HzcFwZ/0hoV+CLyXnMTnO05gwWDFE8bwWtrWKROx70VHrNg2S+EK3QWJauSEkLJKaY08PekOfh2+AuZux7DNfSZmLZiLsf0y8NuwKTj8r+La15NjqzDG0wd+BwIQmmU+aEIIIQVNaSC/uM4NOi6L0c+8glgCJL5NQ0rGSVy8pniVm7uBPsJl7Ra2aPgJjTkihJDCpDDKJsf4YKOXTZZljFJibuPqxZfCvraCRUIyr9zSyMEKdUv4qCxCCCnuFAbye8e8UHVi/yzDY0P99mFvfDJ0ND+DrVUdsTSrpLAHuHb7tbDf1d6ashgIIaSQyQ3kfOKhf86/RXf7hmKJtAPzqNdJYd96lDO6msmvkkfduYqTianCkv/NzAs6L5cQQkh2KueRv3u0Ew4WI3E5JR3z97/AvAE1xVsyS8aB763x5ZJ7qGnshoDwvE94E+G/HbsCosRruYu8sw8rd1TG1MXdUUvF+9Q1tIGzs71aaT6ZeXp6YunSpeI1QggpeiNHjlQ9kN/YNBDWLvtRWWcqzsetkLsAK28f/6ltZyy8GgMHV1/4uPfIU9MKT4rfPdMBw5cGiiWFw6DOKPwVuAmdjdSbzEZm79692Llzp3iNEEKKXs+ePVUL5LxZZVlvW8z0eYYOX/8F39X95NZiM9faFx56gR/6yqu1Fw7KIyeElFUq5QYmPrqI/adfCPs9e7RT2BQRHXxLCOLUPk4IIUVHpUAefvOiEKB1y/VFa6vqYmlOsvzxOi0dYdkob80VhBBC1KNSIP8vOEC4VDbAJ3P+eNPe7bJ0cvou+gJ7btM8HIQQUhhyDeS84/FVZJKwX62REapCfvtz5vxx6+amwiXHA/zfR8zRwpJq6IQQUhhyDeQaqIyqhrrCfqVaBlC08lLY5aNC/ng5jRawMDMSS3n7ehAe2ndGA+qAJISQQqFS00qDpq2FyzcRcXLXIOSTqM+ZuUvY19Ksj5qGH/7tlYNb0KIDjfAkhJDColIgb9R7Eqa0rop7h3bhakjWtu7EsGOYOvkoJp04i5ltpB2hTDwkOfIYdh7vgEHdFS/jTwghJH9UHhCUGHYK08dOwN6wFvjxZxc0r5qAy0d343y0HZatmokWNTTxMmgTnAZPAdovhksfXfy16gK+XLkhy+yJhYXyyAkhZZXKgVwmPvIBbt2PQDL0YNLcCg0N9cVbpDLSXuNu4D+ISayC5nZWMNQrmqBKgZwQUlapHciLKwrkhJCySqU28pJAQ0sXWtUBbYrhhJAyptTUyPnMi68TdFBFUX4kIYSUUqWmRs5XK6cgTsqSmOur4TTJW25KMClbSlEgJ6RsiQkJhM+We4gqLT+qSZ5RICeEkBKOAjkhhJRwmncev8KbJPppRgghJZXmbxMGY0DfL/EXTTNLiAqSER0WjJDId+L1nPiguBcxGeK1soGlJSMu7gXu3ryPqLhEsZQUFc3tJ07j9MkD6N9c/qr4hBCpp/6r0KtJVdSsbw4zowroNGYtQuOz/5pNxjmPUdgUECNeL90i7x7B3LGdYWbeCT8s+hO+p3ywcHpPmNbpjJl/XECCeBwpZDyPnBCiXNRlD9ZKS5NH7SxbO6et7HmGeJBE+KVlrO/IXexlprLCcn+3M6um58bupxfBnWWTGv+ArZvRixlq1GLOC4+zmNSsj4G/Dvz1su6znD18V/SPr6yhzk5CcpES44cZQ36Cbn837PE5Db8zfjjlswu/TPoCYV7O6D/kNxw5ewZeS0eg18w3WOg5GNVK8ZAGPoHeOEdbTPS4i693X8DmHxxRXSvrE/6k/XR4LOmKf45Mg5v7BaSI5aSQiAGdEKLA2RXd2dCfz7Fk8Xpm6alx7NbfZ9iJw/9jXesOYcf/SxNvKXwfo0aeEnuNzexgKPwacVp2WSyV783N1cy8nCbT0fyMHXqYKpaSwkA1ckJyUdNyGhbM7Ch3cRRNrSowb2aMe4cvYZj3Bjialt4lDRnCsWHaKLhfikEDu8WYN81GvEU+bcNaqKtTDikZJ3Hx2jOxlBQGCuSE5MKiW0+Y6ctvK0lLuI2FLq6oOGYHXOwqiaWlU5CXGyZvvSfsj3Qdk2WB9dzcCwkV90hhKEWTZpHSKvbBEWw//LBQ2ln5mrTdR48VFkZRV2pcINyclsBywVaMsKooluZdhP927AqIEq/lLvLOPqzcURlTF3dHLRWDqq6hDZyd7aHuo01L8sd3Fj2xKjQehsazcOrfJWil4MtN5s3V5ajSdrqw3+vnczjm1knYJ4VAaGAhpBgL8Pw8S6ZIQW4aGibM/ViUeE+qe/f4KHPp7VxgbeIZ7DXb6dpa7mMsyM2gzih29pn6jzn04Hfv/4eDq6/c/oLsbuwY/f5v+i1U3p5O8oeaVkixZzf5CK9wFMqWkfEYrr3UW1P2ZdBqDBxzERO2bCywNnH+y2CY+zW5j1HRdn+3M6rpueF+eobc2+VtsRFb0dlIvcfM8Ab+p33Ea0BXe1UWU0/Gf3euivtAm2am4h4pDBTICVHDU38PjHB7g+UHF6F1HppjSqZw3PB5Iexpa3ZCM/Nqwr4yDHcRsCdC2Nct1xetraQLs5PCQYGcEBXdPjob0zZVx+Z9s9G4Uln66CSDxUunHKigbYPGDXOv0cdfPY+toW+E/XbjndGubunN5ikOKJATooIg72/hHtAVWzaPgpGS9QTP/T4Am6+litdKn/q9LGCQa8dqMk4f2YGXjKGchg3GjOutducqUQ8FckJyEeQ9EUuCemH1IkelASkx7ABWrjODdbPSNm9RDRi1kaZWakieWm7t40kRx7Bu2W1hf8ivf2CwlbawTwoPBXJClOBBfJinHgZ208bjx68UpkDyVMT5LrNQwWVArml5JY0G6qJ9L2th/1XIc8QKiSjyMUTD6yc3nExMRTunrVj2fVsVOkZJflEgJ0SB6CvL4ex0ApbNyuP53ftYO7sjDIzM4TJrPY7feIS4uDiEB1/BTs/J6GzZDnvfjsBPXysf7VhSfTrkOziZVMCzoBO4EZwulmaXjOOLRsJly13YOa3BjlUjUbt0facVX4wQkkNq/EU2zqILW38hWiyR5nr7LOzxPjc681bFaHCRzrPCFfVcK3wGyHZ1tIUZH5+lZL3P9NQwtmVGb2E2xDELz7N4sZwUDaqRE5JDMg4vnAHDeVsxzt5QLJPmevf4YT02uViJJVJ2g5bjyt1dpXqeFa5G22k4emYXWr76De2th2H5zqM4c/YgVs4ehab12uLgm+44GvYfNv3QkTo3ixgN0Sckh2T8GxQBk5YNFLbvhgWdw6NXGahlZgvLT8qLpUUr2HsM2o+uC/+389FUs2jbMBJiHiLo9lPJKwVUNmqKxvWNUFmP2lE+FgrkhJRQHzOQk+KFmlYIKaE0tHShVR1QktZOygiqkRNSYiXjdYIOqlSkSF7WUSAnhJASjppWCCGkhKNATgghJRwFckIIKeEokBNCSAlHgZwQQko4CuSEEFKiAf8HFYj+teMK9FoAAAAASUVORK5CYII=;strokeColor=default;" parent="1" vertex="1">
          <mxGeometry x="1076.24" y="1076" width="146.52" height="40" as="geometry" />
        </mxCell>
        <mxCell id="IgM3bS30g-ZwomFUyN2R-4" value="" style="shape=image;verticalLabelPosition=bottom;labelBackgroundColor=default;verticalAlign=top;aspect=fixed;imageAspect=0;image=data:image/png,iVBORw0KGgoAAAANSUhEUgAAAYMAAABfCAYAAAAK76vyAAAAAXNSR0IArs4c6QAAAARnQU1BAACxjwv8YQUAAAAJcEhZcwAAHYcAAB2HAY/l8WUAACLfSURBVHhe7Z0HXBTHF8d/RxFILIhisICikIgFRY0Kdow1tpioqBgVa/62GLHHqEk0KtbEiooaNYgtsWCLYImFgKIIETQWSrCACihKZ/43e3sKcnfcIRwHvO/ns5+dfbt3t7c7M2/Ke2/AiBJPxP7xDMDr7Zsdt8Qzusnz6+uZg6EFW3EySZSoIpUdmNVA+F9mxt+x8KxsUV56SYs/zYbVfp9N2BQhSoiySDaLY2sH12ZthnmzpwXI9uF7RrJK1Qcy/+hMUaIaPWkhI0o4xsaVxJQMI2NjMaV7MMRg07xFQL+fMKJLRVGqCiOYlDcQ02WBNBxdMR3nzNzxv2EfijKiLCKBOb6cORMJ3l9j45E4Uao+Hw2ahomW/vjhpyNIFmWqIGVQCrD6dA5+//EL2Fa3xtDpf2DyACvxjO4R7bsOS49mwm385zCTiELiNS9CvPDD8hD0mTgYDUzoARUUhnhsm+SCX4PUqQZ1l/JNhmLaiPLYtGA9bqbwDrL6SNAQo+e44vzG+dhz+YUoVQ4pg1KABBXRb+4+3H5wD7uW9YWFjtYhDP9gy1IvvN90Cnp0Ki9KCTkMz3F4y0bchisG9LYRpUTBiEGYzzGE/vtMPC6Z8LL9qctQRF9biH3H40Wp+tTq9gVGmN7B1s2++fYOSBkQWiPu3CFsuPAE3cf3Rz0JtXrfJuXuUWzefBOOXw9Ga3N9UUqUdaq06YoJ1hWwb8sBPNKscwAD4xboOaE+gndsg/+/maJUMaQMCC2RhounDyARjdH247qijMjJrQu+OJeWCed2zVBOlBEEr9CdB1ki4sRGnL6eIUrVxQhtOvZCevYp+By5KsoUQ8qA0AqZqVdwbF0EqtToB8emZWlCWD34xLrf3rMw0R8Ip4+riFKC4BihedveyGI3cPxMsChTH7Pm7eFayRgXd/njLlPetSBloENkpyYhNOAMDntvwHKPFfD0PoorEc+QLpxNQ/AhP8QoeZcsMw2JiYnS7TEeP0kRpYrJSk4Srn326BGep+b+Qn4uPjIEYZHPpNeo/h5NeHUjEH9Iv6/xYEdYammIKCkqBKd+3/b6Wf51/S6kDe8Cwd/N00e3EHj9nsLn8vjWKaybPwWfdXPDLwdDxXemPmmxQfjzTDysO3dEfYuSO0SUmRyH8Ih7efJVTl4+TVTLuqX0ICub/4ZcQ4x0r2ne4JjXt0frcvq4fjJY86Ei0w/RpI0ZHoScxD93skRpXkgZ6AB84vDkimH4uOfXCHxYDg06uWD0mFH4zNESsdc2Y3jfqZg/pQecPv8Z4f+9eZkMwZhWrSIk0spVz9AYlStXlm4WWH4q70TT88BVwnV8M6hgKlxbo9Y4BMRnC+cTbh3AhH5d4DJ9KXbsO40jG6aiZYOKaOA8EvuDngjXvAt3Qy/iqbRVYmNrXeRDIHfPrkX/Jlbo6r4dj2CJZi0cYGORiYAt01DfqiOm/3wKTzPVK1Fpj//CQtcWqGXdGjNXHsb5P7fDfWgzVLXtJ1T6CYmhWDKsDzxOJqHDyPn4un8Kpnz+CTz987feyElShFRxpWSgur11ibSyyky+DU/3T2FR0QIN7OqhpnUn/KwgH6bG+mLUoI14rKKFWlrgecdjYj/Y2TpgzOxlOHTKH2vnDEejGnUx+vu9uP9C/WdgUq8+mlUwRvSZ64hMlJVZdZFIy0CDllWQkX0OYeEqJtRFfwOimOCOJVtGNmROw7azh0ocS9ITgtj0tlWZkX4fdjKHA0k2S2LXz/gzP//f2ay+tjxnCZv77ijxijekPbklvc6PnTi4gQ12MhWuk39fXMBK5jppB7v7LEu8WkZyxFbWwciA6Utasq2BL0Sp5vD73DXxQ+E3151PE6Xqc+xHe+Gz+TmdZWVEMa+vOwv3u9o3WpTm5lXkUTbCqTJr2GkmC4rL/X/f5saRGaypgR6zdpzPbrz1bK7tGsuqSCTCMzx0O0OU8nv9mElQjf3kGydK1OPM6i7Cf9R1h0FFZLNotm6EzDEw58bfw+ZLz8WrZO9n/Yju75SX1CWbXWXfmFdQWBaKGp7fTyx3ZTX1JKzPpO15ytWryAOsr6Uxs2o9jv2lpkMYf8ZrB1gJeWtrYLooVZ9ru0YI76TfogBRkhdSBsXMo7OLmLleE7YzWPUL5tdZGORWBjl5eWc3k3YjhReeXwGIPDpTuI5XZAfO72Fj3JQpojfevw17rFeqrPIjm4WxuS2rSisH+3z/pyLUUQbyCokXlkWHpO1OFfBnxZUcr+RDnytWCNxLmisCXqEpumf+ex69awr3NURawOQqLisjkYWHPxCP1COnsszv3nWRM6t7svIWHdi0NXuFBgff9njNYp/ZWwryhVuPsFPHtrHxneuzmbu1o+yKSxlkvLjB5vezFfLhl4vOvc4Xb3P/j6+F962qEfg2vgsaC5+Z7aP5f0q8uFj4bEsV3sw0TFTM/PP3YTyX1Ia5qepXUaVVB/SqpPwaPWNjVNRX73VWNv9A2EsrIXgtOQvXJa5KfBOMULdRSyEVdVrz7qmcrNREPPr3FQz06qBa1aLJcte3zsSE7TfRoMcCuPWuJkoV8169zzHzu/a4f3khJs88nGf8mg/b7Vu7Atczs1GrqeIJb9717ty3tZA+8N1inI2RDd/pGVRC/frVhbT6JOHhPdldfGBeWdiXFDIS/bBtdQXsv+SH5ZMHwLmTs7ANGvkTDoZEI/bKz2hr/R5u+m5AYvuN+H5I6fWqzs6MhuckFyz84190/GoT1s1pr3RItGaHXsKk7uWdM7D/jHpDisYm7wn78DsPhb0mSIxNIO3JItI/HAlCxy0vpAyKmbSMFKRlHcah42GiRDH6xlZo2rlwrXD4GGKWfV+VNu3GBjItkZH9CM+TFWei/Mh8+hgxqRkw0i8aZZD+xA+rfjgspLu5dFbD6c4IbT7pJRSOsxvGYftb4/tZqaG4dEBW4MxsqqOytOpXhJmFzDGMv7+zl2OFdMGIx8OgFzDU6wDzqiVrwkBiUA0DvJajm7XiPFSxpj1ssgNwIWUqVs3rUIpNZtNwctk4oUFiVmMsFi3sA1VulQamlVGtnKG0Wo7DqQvqWQjVqN1A2Kdnpgp7TSj3gRWaGxtIy6K0LCspxqQMihlrm+bCfuOErhgwdROuRb4Sjt+Gt0RHbtqJrpaFa2ni4NCgyAtodmoqnmdlS3sGpjA2EoWFyD++XtgZ9VJIN7C1Fvb5YWT1IZzekxVGn/1+uXoHcuWVH/IeFiejgFZKnKzUFCRlZkFPUgnGxiVLGRiUb4xenWqJR3kJPToT036ri1+2uOisZ3xhEHdpJaZ9d0pId5viBkdz9avW/8Lu45kG7ayHGl6fk5cZ1xEdq7iHL+FjRWKaKAYyk69gTo8e8LjwxmLH1KYV2rZ1Qu+uzmjm4AT7+mb5VtipsQfR19ZFsEhx3x0FjyHK4xNxy6JKrb4R0lsupWOUo6GQVkSEjxvsXLZJW/V9cPj+wQIpI/nvmRl/h4svF6C+nma1wvFFTdDz2xsKP89j0Hi5tcbobfeElvX+iNPoY5t/D4pbYrlX64iV8S9QsdxknEtcjaZiLCB+bmLV9lj/9CUcBmzDaZ8RCi18onxnoU6vpUJ60aHHmNNH9fCUMuTv7lx6D42fMbfi2bf9KGI1jFujLlath2Ngu6rikWaE+EzBkoudsGpNv3dWBJr/zxgcnbcO+gPc0cNevfuXSHuM9r1Goovd+6JEPbiPyIo+jph+JBbl9LpiX4RvvnkwZ3lVlcdyIi+L6l6fE7XymDBzQBQrryJPCRYu/HUo2sxsurFFu28onYzipPx3gHU1MRSuz2/SLOnvla+/W6oMRKlieBhcft3blkyaIP+9goagVjWBLJ8o1PQe3/7ciXs5P5fKDnzbTDhnajRd6T0Hb/lcdl81xrJL+VgmqUL+7gryjF+EbRUmuvl9FMXW7evfmaa2P3xC/MzqYcxt0TmNP6sM/j+dasjyd1FurkuVW9sogxsb2OnL3kGDruoZWsgndPmmalI3J/KyKFUGGoe0VieP0TCRDmBSuwu2nouAn/dSDHVuLIxl5+TZnZOYO9Qew78/VyCHleJGYmQMaWERj3QPPub/36OcXWcj9Bz/PfpaGiMpbQeOnc47wceD7h3wPCdtTVbDGI9pGg0LvI3++5VQrVzBhv/KN3TDtYws3qgrku3Eqn4qx77fhreSvacOxhETd2yY016jz6qC/8+LsekK71HRJlX2kCp7oZes6LyybeeMVuIvqs/Vs79D2mAQ0k27NVOrF3Qv/E1oCJumuuFbUiwllFtrXPnDA66d7VFVT09whKps2xrDZ3gi5KFyD7nSjJ5BNTi7zMAuvxuIT09B3P3rOHnQCxOHOLxWDj7zB2L5Yc3jmhc3hlU/gGUBKzttoGji1rjmp1jiMVyaV+OwZv4M+N9/ky+51cj2qVOwOFAPo1cceWcLGflkYkmHP5eNI8cistNqrBhrX4oni9/AhynvhtwVj4DmjezElHL4Zy75XRHSvDHh7NhMSKuLWW0LlC+g8lBlxKF1ZZCZHIrvXVxx/FlrLD0UgifZ2YJGvrnfHXoXZ8GhRg0MX3y+RLaAC0LY0U0IFM0S5UgMjGBepwm6fjYSv+wORuyDU5jcpopQMf22UfPIhcWNRN8IRnoSlZNXBcccdTvKzDHTswLeauGrJlWa9zhG+h/lKSC85e+z2xo34+5j+ed6mNnNCs06dcYnXTsLXsx7E9vjxI2b8PymZSFUekaQVNATeigx/xX289EOvFz/4DoRBm47MaePrSgtG6SmysqvkX4fNLTNf74hLfYvHP7jgZC2dpyKjq3VsxJ89Og/YW9UwUTjPJfx5DFi0rNUGnFoVRlwjbhj8gxUdtuKeW7tUDOHeqve5Aus/20L+lg+x69zO+Abz1vimdJNTMh67PtLtVmikcUnWLLbE11NDBHjF4FHKuK+6CLlLKrD9j1ZDmTvYHWjCG5l1bDNR0KaK8vEBPXiKaVGReLOK1mTo5FrJzSqnLsovAg8hastWsPOvA4GuK9H0O1YBB05iP17DyDswT0c3/YdujYurIBy1WDdylRIpakZJkOXyEi8gnmDV6PJfG+MUTHZzE2AJ472KbAljK5jYvARatfOv0oNP31AmDjmvYJRs9zUDueekvxY2Nevo6kfi7RspKUKQ1lWPaxhquT3tKoMXgTuwpbUvujtqDjDmNTujylT2grpHRNXIiChZLaSNCXgQnC+gbuMa7dDn341oCcxKhLzzKLFEnU/MVMwNl84tP5ivKAoOVeuhwv7/IgLC3xdIAe49Mwztv3gfigSHiXkei/65SvB1NS00Ic/+PKGdRvKli69H/NI2JcUuDXcvIEr0WrZz+in0gonDX6eyyFxaloiYy8pgy8+U7227H/rSUyEvSqyUq/Ce91JIe00bA3G5+MgKYc3pB/cleXGetZ1hL0mPIy5Lew/aGitdE5Dq8og+PJxBHh/BdtKrbE3VHETsZmjs7BPzvDE2cv5VZGlgyDPbbj01lCRMmp0UK7ZdRVe2dk1tRDSEfc1957MD+Oa/TH7py5C+uKe4/kuD8jnrPz+2C+kHYctwxAFazGblK+GwE0bcCK8kLsySqhb30nY37xzX9iXBGRm0aPwsrsLKidFIV6FU2KIzwxMWm+FIb1L2xCSEZp37C3M66VnPUJikqq8l4ZzP8+DR9BTWDvOx8Z1AzVQjHG4/89zYSiqXi3N598e/ieb12hoq7xXoXcx7KmY1B7ZLBJx8Yq78wZVPkBTA5mOivyv8CsOXYS3mD09L6icJ0l/EoRzRx/BeZDzO9tssxwejOoOS/DQFanvMDxVr2FHYR8aXjSVXYcpG7FuRANhecAfPFTPOd2QVkwztt5DndYzsGbFMIXP06JVe/R9/xy+dG6M0TM8hDDYObdVv+zCiTP+OBdwU2UlqC41bOwFi6sH1++XiDkhbjXkOWk49ifawdQgGsHHpT2Dj4zQrOdXWOd9GnekvaqExCgEnNiDOS6N4eCyBwNXzn0nqytdxarbMHzVtmq+DVjudzFw1gkh3+099B0aVVD/WaQ/isQNqTKoZNEUNnU0e4bySW7eC25op8Ip87dTMSrt1wsTHsTJc6Y7+37reaX2xzlt4BccKHlBuzRFbkNf18aOjVnxt8LnwqM98iBseYNapbKEhAT25GEE8/nxi9fPzdF1Fbt4M1Y4J3+32Rmya+Pu/81+Gm6X69qr954K51LF4JtZKYnCcXT4STazl8Xra/vP2sFC7+e+Vl3kds7q2mFnvpDdQ3jADja8eSXh93nQuKW7A1m0VJ6Q8Eq88g3yqKXSTM8Gf/sHe5KR+4e4/Xugt7tgl69O1NLre8YJkUnl/1/V5tBjPPvVL0b8pOZwv4dpdSuxiuUms2uvNDQiLwaCtwxmHUZuZw/S39yrPBqnoufjsvCs1uoZjrYD1fFouIPql1cY4Vbwu1g77HUU03vPNX+/cr+Ezu7HNX6O/Fn8r8r7+eYtbsmjU8gdefI6ApVOuDLglfyD9EQWuGcu6+rYg02dt4kd9vdjfx7zZiu/G8fa2tqxiUtP5qnc5BWsiUV91rmLc66tha1RLgcTuZI1tWml8Fp+Tu6AJnduqdOoY55rbasb5LpWXeRRPlU5veREriTtWnfK9fudOjUSKmhVDmx3zniyUT3rC89l1PRlzGPZcrZk3iTWuXEtZt1oEPv5wI18naEyUx6zw7/8jznVtGZtc/x+zs25i5NQwPl98o0rIa7QC1bpyRzd+Hdo+my1DY/62t1pPrutoGLh4dBzOofxqKVLDmg/LLe2lQEnLT6ILRjanFnZdGOzhAiux5iXxxTm/KExazVgATsR/ES8UnPkIc5XnEwSJeojd4rLT5HolDKQhzrmf/qL2ccLzXtRl3kcEZ7rf/IW/O1rZ16HAg4Kj9W4Fa6rBG8fIrxbbYVpznjxmN24zNd78GP+/ldZjILehCLkrTyH3j+xiLdaeYp4/jCE7ZjbX1BSPEx3zhj+msDDlPPvGLJCcy9YbcLXxrgTr/y5pCdEsgvSZ3728j/seTHl3eJQBnIyXkSywDOy8nv+2h2W+ELznkBOhIZUzxqsas0ZBeo18gY2b2T84qc6X+qUMuBdT15ZOA7bUKCuFKHbpMb7sgEVjFjrkd46q+h5g+TbduasSo3J7KqStQ6UIc+/BenKc+SNodoOi9mdbMr/70JxKoPCRr5WyeAChMqQKxJ18pTOzObE/70KbuN94NB7ATauGAvrCiXLYobIH6OqnTFyVhsE79gG/3+1Y6WjKS+C/8SGC0/Qwq0/mmkwwcex6/6FYOJ6x+8aYqQNLU2RoCFcv+mN6GurcfxM2bCkKzpkjnyGhRv1vVj4+49tuJb1KUYMbiFK1Cc55Ci8Tj7CAPeh+foz6IQySIk6iDED5qCC60r8tnUe7EuhxQHBMULnsXMwyPIi9vz+JjaLTpHJhLWaC4Lc0/p9c1O8L63aC8JHg6ZhbjuG3bt8y9ii8YULV6xLQ6KwYKDy6L0lAe6ot+2Xy+jz3TfoqGHEYG5CfXjLRry0n4eRn1mKUhWIPYRiIy3+Lza5bR02+Fsf9t87jq0VFL4OsdfEQWyHFtZmJWTrsao7kaxtMlIusAnWFQo0TCRfZ3bYO475P764mDUwaFLguQei9MCXFC1IXuTwiWMHQwu1J52LVRnIFnq3ZlPW5DWp5BOpSSnaUQ6laXyxJMDHMdcOrs26FXBsvajhFjHc/FTdCWTO7eM/Cp/RZE1b5aQy3wXO77TuNFHy4XMFHY2rF8jgQm691+kr9UOQF5syyHgRxGa0bcMWKInTz80bteVnQMpA+8hs0msWyFROG3CLoq8+tRMXej/M/n34UjzzBt5gCQ/wYbMHNWISSW02bmnhxe/n5WN626pswqYIUUKUJeQNpoL6Z/BeKvd5CNWgR1EsyoBn9Fm9PmWrfaNFyduksgOzerGdwdoZtiFlUDzwFniLmgN12p8kMfI62+M1i7l2bcNq6X3AHDrKfAzaNa4p+GH0GjGV/XowiMUXQS9WpjBb03BRmSOVHVvUvcC9zIKWK60ve8lD3f44bAzuO0zA8HY1RWluslL/xfqvLmNq0Fa0V7FYe2EhXwJRb3WYyuUiicKHW5ENnnMb87esRTsli6qXZVKifDGq7zr03LYXrg6FtVQMoctc3z0Ok086wWfrl6huqJkhAjfGGdp9L8Yd241umpYnQSWogHeF4yPvq+2wo4qMF7fYyhENhEm2/Lb6XX5S6OFYFFDPoHjhQzJzl53UyfkDXSA94QZbPmUTi6b5g1IP7w0uXFaw4UY+tLR5rgcLKeASrCp7BqFH52HW+lh83Kkh4i9swPkXrvDOJ8BS/N/rMWbeQXw8fhvm9s9tzuS/rDU6z/xbPFKN0xhvnPR0KbRl81RBPQOCIMo6Smv124e+hseltvA55oUF06dh8cxRCDuzENMXn1IaEZKvDrVm8nwc+tMPl8LuidI3OM8I4D0RtbaLWlIEBEEQhBJlwB0dPNZaYP6irq8r5NQUWdjjwNWXcS9bcWciNeoWgkKThHSbpvmvBUoQBEHoBgqVwcUdS1Drq9zLsd28fknYG1QBlM1pyFeP4guMN7IzE6UEQRCErpNHGWSmXsQf25ujbw9zUSIbU/ddHySkmw1zhKWSGBf/XDkm7Gs06YaGNmQZQhAEUVLIowxe3QzC3V4d0cDkTYUfd+4Ett9/Dn2JPYYO7KxwDVg+X3DpmGxlMpvODkoVBkEQBKF7qOFnkIaDs5vh8yU3UdthMfyuzlIY/e7V3d/QucGXCEjPwmyfKCwuxgBRmcm3sW/7UcTmsxbuG2JwdN466A9wRw97xYv1v40ERrDvNRJdVC4CrhobGxtkZupm9E6CIMoGwcHBMDMzy18Z8GGj8TW6YmvCK4zbFIGNYz8Sz+QmyncW6vRaKswX7I84jT62xRc7NvkfL3TrOh6XHmSIkqLBdWkAds5oJR5pzueff47s7GzxiCAIQvvs2LEDFStWzF8ZPPabD4tPvheGiLZfvQJXB0PxTE7U6z3oKuRnQBBEWUepn4GMNFw8vV9I1WrqAsemilv7DHcQ7B8npGm+gCAIouShUhnwSv7S3lghbd/PSWlrP6d/gXO7ZgonmAmCIAjdRaUySIu9hdCHr4R0axVOZHL/AiP9PmjeuIoolSqJ2IP4cvIhpR7LBEEQhG6gUhlkPHmMmPQsIf2BeWVhrwi5f0Eli6awqfPmKx9fD4R5CzvqKRAEQeg4KpWBgekHsCynD31JS1QyVTxElJV6FWd9HwjpD/s44IPXQ0lpuHrhH3RwrCseEwRBELqKSmVgXLsOGld/D1ksEHFPFJlApuHUym/hEfRUOKpoUfl1LKO0J3446NeGPJEJgiBKACqVgQTN4Pr9Z0L68GH/XGP/fOX9s2vGYD9m42/vEYIsK4dZ/6VfN8PKfUiJMjElCIIoq6jlgXx23RgMm3wKzUfNxqjBjfEq8k/s2xKCZhOWwn1IYxgiBnumfwX33ZmYvHwMzP75Df5sLDYv7lYiwlCTnwFBEGUdNZSBjOzUJNyNuIaYhGwYVq6Nlo3qwegtt4PnsTdw5fYTVKzeFC3ql5yopaQMCIIo66itDEozpAwIgijrqJwzKDsYQVJBD4bFF06JIAiiWKGegUhWchKyylcinwiCIMok1DMQ0SdFQJQhGOKxbZILfg1KFiVEWYeUAUGUSWIQ5nMMof8+E4+Jsg4pA4IgCIKUAUEQBEHKgCAIgpCiN3jOIdAUEkFoh8zkOIRH3MPzVOVGfC+fJpa5MvkqMRHxkSEIi3ym8tkQRYee9+K+JSJkBEGUZDKTb8PT/VNYVLRAA7t6qGndCT+fihfPviE11hejBm3E4zJg8Z2dGYcja7/BJ/Y2cP5yNtbtOw1frwXo39IKrQcuxJ/hL8UrCa3A/QwIgig6slk0WzeiAa/dc236kpZs86Xn4lWMZWVEsfUjurOtgS9ESdGRza6yb8wrMPfdUaJEu8RcWMt6fGjCrFqPY0duPBGlMvhz4M+LP5/FvtGilChqaM6AIIqYc2vGY+YJc0xbsxd+/n7CtsdrFvo0foip/Xvje6+j+PP4dkzo3g1RXdbA7ePS3FdPw9k1g9C03STE1JwB31Pr0SvH6ogcPQMrjPLwQP/yIVg62h0n78sW2CKKGFEpEARRBKQnnGZf1hnETtzLFCW5SfovhEmVA1s9oSVzWXiWpYnyoqa4egbXdo1lVSQSZlZjLLsUlyVK85LNktiuiR8KPajus45r7bmUZahnQBBFiMSgGgZ4LUc3a8WLPFWsaQ+b7ABcSJmKVfM6lGov+Pi/V2HkiC14xqS9pA0/wNFcefUjQUWYWRgL6eCdl3Evm+sFoighZUAQRYhB+cbo1amWeJSX0KMzMe23uvhliwssSvE6UJnJV/DDxB9wPTMbVg5fY1Bvc/FM/iQ9uo7oWEUrLRKFCQWqI0o1fEU+/+1euBZfNOPOZjZd4fpZ4wK16EN8pmDJxU5YtabfOysCbq20b/tRxKaoW5xjcHTeOugPcEcP+6qiTDUSGMG+10h0sXtflKjPtR1D0WzEb0J64tYI/OL2kZBWBo+dtH7Ix5joHQUj/T44fP8gulrSErpFijBYRBClFD5mP6z2+8LYc1Fs9s4rWXS2+GNqwsfDz6wextwWnWOFZTf0Imwrc6phqPAeC3NzXRog/qL6ZLMwNrdlVeHzhnod2KHbGeIZ5fA5jf9Vkb03E/2B7MwDxXMuROFBw0REqcbQtDN+jUzmjZ4i2UL8psJSg1Y9k7bIvacOxhETd2yY077QfHzKN3TDxdh0hfeoaJNWtvjGvALcd0cpPK9s2zmjlfiL6pMcch4Hr8oC4tVo0g0NbfJv4afcjUDwi1QhXc2+KSwtqKoqaugJE4SWyM6MxsaRYxHZaTVWjLUvMyHTH9y5gfAs2Zi/TWcHqfLMX3tGXzmNgHTZ0J59PyfUU+MzxLtByoAgtEBmcih+cJ0IA7edmNPHVpSWDVhmmpgCmjSum68S5PMFfof8hbS+pCUG9nYS0kTRQsqAIIqYjMQrmDd4NZrM98aYdsona9Of+GHiaB884yPlpZR61nXElHJS7v6JfQdjhXT78bPRz8FQSBNFCykDgihCuEnlvIEr0WrZz+in0gonDX6eyyFxagqzUjYiUrmqpZgCjAzy+3NpOOezFefSMlGp+kDMm92bYqdpCVIGBFFEcEUwp8covOzugspJUYhPVt7kD/GZgUnrrTCkd+kbQjJr3h7DassU4eP4BGGvjCdX12PO/LPC8NDyA1vQicxJtQYpA4IoArjVkOek4difaAdTg2gEH5f2DD4yQrOeX2Gd92nceZSAhMQoBJzYgzkujeHgsgcDV85V6ZVbUuEWXW5TOwjpk39eQrqQyktK1EGM/mwOQrNaYOWJoxjtWEE8Q2gFRhBEoRO8ZTDrMHI7e5D+xgnhVeQB1tfSWLCdf3vTZlwijrZjE/HIrVtHOwiRSD3Px4vSN8Re2fI6iqnvzWRRSmgT6hkQRCHz6u5vmOP1ITav+xLVDd+MkZvU7o/N+xbDqcabCdHyFh2w5MAteH9XuuMSSWCJkZvPwtejETwGtcTA/63BkTP+OOS9GqM/tYO9yxH0+Ok8wv7aiJ4F8HAm3h0KR0EQhUz609uIYTaoV1VxWysjMQqB1+4i08QCzVo0QAUD8YQWYQiGe7WO0FsdBo8hVqJUO3BT0zthlxGTkC1VEqawdbBDLVMT8SxRXJAyIIgySHEqA0I3oWEigiiTGEFSQQ+GxdArIXQT6hkQRBklKzkJWeUrlZmwGIRqSBkQBEEQNExEEARBkDIgCIIgpJAyIAiCIEgZEARBEKQMCIIgCCmkDAiCIAhSBgRBEAQpA4IgCEIKKQOCIAiClAFBEARByoAgCIIA8H+bVKsdoBpSGwAAAABJRU5ErkJggg==;strokeColor=default;imageBorder=none;" parent="1" vertex="1">
          <mxGeometry x="1129" y="1186" width="150.71" height="37" as="geometry" />
        </mxCell>
        <mxCell id="IgM3bS30g-ZwomFUyN2R-8" value="" style="endArrow=block;startArrow=block;html=1;rounded=0;dashed=1;startFill=0;endFill=0;strokeColor=default;" parent="1" edge="1">
          <mxGeometry width="50" height="50" relative="1" as="geometry">
            <mxPoint x="1017" y="1051" as="sourcePoint" />
            <mxPoint x="1037" y="1041" as="targetPoint" />
          </mxGeometry>
        </mxCell>
        <mxCell id="IgM3bS30g-ZwomFUyN2R-9" value="y3&#39;" style="ellipse;whiteSpace=wrap;html=1;aspect=fixed;fillColor=#e1d5e7;strokeColor=default;dashed=1;" parent="1" vertex="1">
          <mxGeometry x="1082" y="1178" width="25" height="25" as="geometry" />
        </mxCell>
        <mxCell id="IgM3bS30g-ZwomFUyN2R-12" value="y1" style="ellipse;whiteSpace=wrap;html=1;aspect=fixed;fillColor=#fff2cc;strokeColor=default;" parent="1" vertex="1">
          <mxGeometry x="1040" y="1017" width="25" height="25" as="geometry" />
        </mxCell>
        <mxCell id="IgM3bS30g-ZwomFUyN2R-13" value="" style="endArrow=block;startArrow=block;html=1;rounded=0;dashed=1;startFill=0;endFill=0;entryX=0.168;entryY=-0.085;entryDx=0;entryDy=0;entryPerimeter=0;exitX=1.123;exitY=0.515;exitDx=0;exitDy=0;exitPerimeter=0;strokeColor=default;" parent="1" edge="1">
          <mxGeometry width="50" height="50" relative="1" as="geometry">
            <mxPoint x="1045.97" y="1136.4499999999998" as="sourcePoint" />
            <mxPoint x="1071.5400000000002" y="1136.4499999999998" as="targetPoint" />
          </mxGeometry>
        </mxCell>
        <mxCell id="IgM3bS30g-ZwomFUyN2R-14" value="y3" style="ellipse;whiteSpace=wrap;html=1;aspect=fixed;fillColor=#e1d5e7;strokeColor=default;" parent="1" vertex="1">
          <mxGeometry x="1137" y="1223" width="25" height="25" as="geometry" />
        </mxCell>
        <mxCell id="IgM3bS30g-ZwomFUyN2R-15" value="" style="endArrow=block;startArrow=block;html=1;rounded=0;dashed=1;startFill=0;endFill=0;strokeColor=default;" parent="1" edge="1">
          <mxGeometry width="50" height="50" relative="1" as="geometry">
            <mxPoint x="1107" y="1203" as="sourcePoint" />
            <mxPoint x="1132.28" y="1228.5" as="targetPoint" />
          </mxGeometry>
        </mxCell>
        <mxCell id="IgM3bS30g-ZwomFUyN2R-17" value="" style="shape=image;verticalLabelPosition=bottom;labelBackgroundColor=default;verticalAlign=top;aspect=fixed;imageAspect=0;image=data:image/png,iVBORw0KGgoAAAANSUhEUgAAAYAAAAA8CAYAAABvuG0FAAAAAXNSR0IArs4c6QAAAARnQU1BAACxjwv8YQUAAAAJcEhZcwAAHYcAAB2HAY/l8WUAABuhSURBVHhe7Z0HXBTHF8d/NMGIsWKwIGKJIjbQKKBRsGHXaERQsceYqLGX+I8ttthLxBgbGitG1KioGCl2o5FmwYKiYMEWQFQ687+Z25N2d+weJyI3389nPzc3t7e3Nzszb+bNe2/0iAxwOBwOR+fQF145HA6Ho2NwAcDhcDg6ChcAHA6Ho6NwAcDhcDg6ChcAHA6Ho6NwAcDhcDg6ChcAHA6Ho6NwAcB5rxC8QlTkf8I7jjIe3opCqpDmFF8ykp8hOjZTeCeVFDy6+0RIaw8uADjvjfTXt7F6RC94Bb8QcjjZocLxwJyvMdsnRsjhFGdI+lNs+a4T1px4LuRI486R8XCf4YfXwnttwAUA572Q/voq5nv0Rmzb9fjZ9XMhVzkkPQXx8UnCO92AIAa7J/TBXv2x+G1Ga5QQ8jnFF0PThvhp+0I8nNcas/beFnLFYgyncX9gkOkqdBu2B7Fait/ABQBH69DObcNYN1xr4Imf++ft/IM8e6Ndx5aoZqAPPT096BuZoFblX3AzU1eikqTg+MKRWPZoAFbObMM7fx3C0LQZ5u5YgPDJg7HpQqKQKxZjdJqxAa5kHibMO6UVtSEXABytE7p5Gpbd6os5U79U2rlZtx+Had+NwPfje6KCTADoGk/9F2Kk56dYtNgD5rr393Wekpa9sXhlE8z9egQCYzKEXHHowQLD5i9B0qYBmLM3WsgtADQYHIejLV6FriO2RuZkuV+CkKOOZOIzvT4d9pPyJrNIREamkF98SXl+knhYliKjf78p5HB0kUzyjKx1tyQtPXaTlxpU+4g9Q0mZyq4kIDpdyNEMPgPgaA2q+vl95gKg1yIM6fCpkKsOY5Q0NRTSukAKjiyfglPlJ+N7D/XrIpzijR7MMGjaNMTtHo/1h58JueKp228SxlgEYN6iwwVaFC72AoDgObzGuuGPy9pcO+coI9rXE4uPpGPYqD4oz1UbeUgM24J5y8LQY4w76pfkBaQpxaVNmzYegElDTPH7nHW4kSRt/UsPNhgxYyBOr5+NPZLXErLQgRlADK55H8XVO9wW/X1CcB2bFm9BqSbj0NnZVMjlKKAmn4c2rcdtDETf7rWFXI5mFI82rYdP0dVtAKJD5uLPY9JNQ6u5fI0hZSOxeaOvxrMArgLiaIVnp/7Cb2dfoNOo3qilgwu7+ZF09wg2brwBh/HusDczEHI5uk6Flh0x2qo0/tzkI9m009CkGbqMrofgbV4IuJMu5EqDCwCOFkjBuZM+iEdDtPqippDHyc6ts744lZKOtl/acbNPzjtoJ962nwVuHl+Pk6FpQq5YjNHSqRtSM0/A+/AVIU8aXABwCkx68r846nkTFar0gkMTXVrUFQddHPffG4SSBq5w/KKCkMvhUIzRtFV3ZJBwHAsMFvLEU75pawwsY4JzOwJwV4PdfQssADKTE/D4fhSe6ZgnpxQSHoThxAEvLFu6HBt2H8GZ0LuQDQYl8frFbZw+tgdrZNdY47UPpy7ewKtkaQ88/fUDXA4KwF6vlexe/jhwEtfuv2WfUR31qYPnNNIlvg2/hIOy59/Q3QEWhaT+0UaZKqB1+GXsLVwKvafUI/nprRPwnD0OX7kMw6/7r0p2wEl5dBl/Bz6HVTsn1DP/eNU/6a+fIeLmPbX17s3LeK2GKij6UC/2eNwJC0GM7FUT5yyzeo1gX8IAoX7B0tVAZT9H45bl8TjMD9cjpfkUUAogAFIQ5DkIHQfNwa4/vTC+axU4iXBRDveZivYde+uEVc7doLXo3bg6Ktu7Ye+FNNRtZosaJs9xdvcStKpfC6OW+OFluvoCi72+D993q4/mrotwNc4UDWTXaFCjFCJPLkWzmrUw4ue9uBenPsAUjcmzYXJX2fPZivtJZeDw1VCM+GY4nK1LI/zIFHzV/2dMGdwcvd1P4KEG3rh3r57DS9noo3Ydq/eu3lCUacfJWxELC9jJyqO2eToubpqEetWdMGXNiXzLVEHK0zOYO7AZqlnZY9qKQzj991ZMHmCHinV6sY4+Lv4qfvHogaV+CWgzdDbG907CuD7tsSFAmtVFwk2ZsEpKQ+VGVh+ldZSi/ph/ao761rVQ1cpZaTyb5Ee+GN5vPZ5qMBL92KB1Z+mYXrCuY4tvflyCv04EYO2MwWhQpSZrk1GJ4sugZK16sCttgujAUNyPlxYsjjqG1W9eAWmZp3AtQoNFccEfQCLJJGC5K5n2exhJEXJCdgyh/5iM2azawSU17iSRTVfYeZN3PhBy3y+Z5AqZaFa60H6PkkkSyP7Z3UkFPT3i4PEbufcqr6cHPefC+kHE0WMreaLEEYR+HrjKlVTU+4xMlJVzopCfndS4cDK7Vx1iVmcwOXDjtZCbk/Skq2RKq4rEbW7Qu2eVm7f3fUhPCxONnLHofe4Y8zl7pp6nVf2Cao7Ob8S+m99vZ6Q9IFvGtyMGes3JKt9oITcnb+8fIUMcyxEb52nk8rMMIVc54YenkiaG+sTKYTYJ/y/nuSE7RrJnZ2zQg/x1O03Ipff6BdFDJbLI95mQI47AVR3Yf5y47ZaQ8/GQSaKJ5xC5s172gz6HjedfCWfJn8+6IZ3I5kvKaqp2+RBtWgGt78eXDSRV9fVIj7Fbyd1cdUfRlqrbf0vOiHTSomW8tm91Vrc2X0oVcsWj6Ht7Lbgo5IhHIwFAvT37fHcgR6cUvKkPuwnbvl4qPdvizy0UKk8jsj1Y+h/VhMKvLMnk6IJO7H/SzuX2W+WFEbbvB1aJ6HkL/pKNmXKQdQ2P5eofalriGTKihinzCjx+L2+FC97an5gajSQXclXU3NDzNBMA18j/mlfU+JmKEQCKTog2kLxllZM3kTtJG2NDVvZXXyn/z7T+0s6fdmLK7pn+3tLuVdl99Zc1KoVYy0iLJxERj4V34sguIPO796JI4KouxNS8DZm0ei/xD/Bnx54t08lXjSxY/tzNh8mJo15kVLt6ZNrOwhFwH0oApCXKB1y0Hg5acErlgCrq4Hj2vFUN7pThO6ch+86P3tL/k6Jfba6BV7FkAUAr9OYRrXI0HHlerXxvQjES+rTEDyRERceobQq7stw/Mo2NHmkl+dU/a4SUHUWnScuCHl1ko/PsxJ6cxa5RsepUUeVE3cLpdWo6LCKRmVnnU3fzTUNrkrLGU/Lt2GnH2aq0dAGQlnSWDC/3CRst+2ngli5GAARvcmfn2HReJ6JBUeHZlp3vnGuQQsleVy1tF+Yor+woBjSa/i8FTJh0qcKutel84Qx6tAWdsQ+q0U/pwIKS8DCMCYRVo5urnWFqmw8hAOgMRzETUlavsqPQdKjrA3Ljv7gFu7Ymo/iEKytZf1Gp6iyV9VkVktcAqD3zwScD0L6JkZBDF7lOwnunPDBRcydbpXpOaglx/dwtlm403Bm1i6EnJHWG2vjzZqYPr247Xo1DlAXqO1ZlKVklQcsm1ixNoddYO/c3do2mQ7ugiYhyqtGqGzqWNMK9Cz9ilVfOMLPJyRlISNmGI8fVx+SnesgmpaQ/k/SXTxGTnAZjgxqoVFH7RmWpL/yxct4hlnZxaycieJoxWrbvxoLMBf32Lbbm0tdnJF/FeR/5xhrla1dGOdkTUEZ5c7mzVkrGIQRdeMTSmvEcTy4nwki/Dcwqflx1Xs+wEvpuWQYXK+UL159WbYTamRdxNmlCMY9qmgK/Jd9i9NYbKF9lJBbM7QF1ro6GZcuhUgkjWVt+hhNnxVn2VLGsz15T05PZqxRKfFYdTU0MZW0RSKNiRAKSW2xM6BlY9nbO0RAjTvqwRa5PDAep9HJMj7+NiyfkMS9sZB1ecfQVTbx0Ausvy56CjHpdHVU6RFEPQPeVpxEaGIDTISGY0aOS8EmWQxWlobUVe80P46p10bDyJyx9eO3+d+ZgNN5ITZtKrCJO7fYFRi05hLsvlFtr6cEOiyOmo56+tE4qMzkZrzIyYahfFibGQqYWue67BdsfvGHp+nVElkf1z+H4ibwBeu/zz2GVohBY+VHO7DMhJWtUGloXUTKSk5CQngF9vTIwMfm4BACNX9/NuZrwLi9Xj0zDpF018esmt2Id1fTZ+RWYNOsES7uMGwYHM/Hd5sNrUfhPQqf8ROL52XmTForoRxIXkek0QEhrBB3ZL+9qjylHH8N+6G78vcVNaef+1H82zNv/zEa8my49xLAvsmYQUqAWCX9uPYJHomNnxODITE8Y9J2Mzo0qCnnq0ZONIht1G4oO1qWEHHEEre4I5/F/s/TEbbewfJD0gF8BS+zRbto/LL3cLwETO+YfVI3GRlnX/wuM2f2AjTT33TyJHnXk9vhJD/bD/csB+Csma2RRo4ETHL50QKcObWFn64gGNeTCQxNeXVqJMi0morzJLJx7M0eyADm2oDG6/BSu9Pv0f20ZZo8RXvfy/C91EARjciUnrHieiE9L/IBT8avezaToZ2Mqtsa6l29g29cLJ72HKJ2xPvCdjhrdFrP0gr+e5hDSUkh+tB8967jhVGpnHIraj44W4s1Apdd1aVS3HwzXL8W1idyEeY/DL+ecsXJ1rwJ3/kW5TbP+rYcDphx+hBL6HfHnTd9866DimdNBsbo6lp2b3sNg7eYl+vzsFKSOFTgcNNUd25cwoE9ObQhgben/E69tJo5VjNi13ucxcLE0XVz2xT56aKKfVISIVVxDrM449/dyW+O8CPUkzlVLvPs892HVoB/xOv1cOFsaCf+sYNfQZAGZom4NQKHrpZ9L0cXn/l5OHXYy8fnJjn2mbm1EsQYgm/KT8/lYFKkj6aEP6VjSSKO1BFrX6WI1vY/3cbiMV6/LVgat54GrPMiwBackf1cVRbVNU6jBgLWB/BnU7yhmDSprUZYeYhdmFet46oxoVFGQOlZgpe2toP24mJoBU6ORcPxCuWKHStF/T1xn6YLq/01thuHco1QquEQdss4Ass4Asg5Z6eeqju1TWwi/KJYUxL9MEdIflqiYWCElp0Lj7+F37Tb2/ToB3RzqCLlZRF3zxrDWNpi+S+o2dbKRlbEJZA1EeFf0oDr8hzk24jZGl1E/o6eFCVsbOXoyr00/XYfx2XCKzVa/WTpJ0pQ/NwalyqBSCc2cv2hdD0nLUFo/tXEcX9lLkiqWtuPdE9xxuORkto2lttS4RbdNA1eCDkA2SGDpJi52omY79yKywjLUblK0fT8K1HJphfDff4Glm4zojAbllF+O6v/DzsmdFIqr/p9iYlI0vDwrVywrpLIwKmuJPmNW4PD528hIikd0xEUc3LUSw7vUY59TffmygR7YESItHolRxc9goWEHVxgoW3w1qdoVvywdzP7z6tlTERCV5UGZmR6NrRPGYeElfYxYfljplpZSUCwIfuzQclk/dCTuO6/C8pGNdCKeEVVB3g27K7wDmjbIMtZQBf3Oef9/WZoOINo62LG0WMpbmsNUQ4GhiSFGgQRAamw4Tp+SL1jat7JT2bG/vXEJOxKSYaDXqNgGC6MLrrUa1xLeAYmvpYfGoNewqpul878bI7dWyZ9kmZSlM0jZiFNWxpXMSrI0De/gv20X7uTSreqblIFFvRbo6T4em3wj8OTadjYiziCXsHOvvyR3dj0DYxjr62m0AJU/ZqjpVI6lUjMu5hrJqyc5U36usUHdPI2CjvC9d1rhxrMoLOujj2ku1WHn3A7tO7Zj3sR741vjePgNbJjYXAsdnTH0SuuzmUjMQ22XT+FAN/ifN3AMDIdtx4weeWeQxRlqRUcxNugBmzr5rx+kPDqDQwcfs7SVwwQ42YuLjRUb+5C9GpcuKbnOpb14ipjUDI0MMQokAFKib+Pwm1TW6TS2rizk5iXkciB7LV3CBc0aZxUIXUAcsSZMePfxY93E6d0et5F3ojSKC2LTrIuQAv4THV/pOW4EyK2PqjVxyxaQLQU3/ebjdKh6MxZzm4HYsGcWU+VEB0uzQihhXhl1PpHXOlIAaxllUDd3m5Z1WZqO1uPjxJVH8oP7iHwrL/0GA53zzEyptdaVZvawNquBvpPX4fLtR7h8eD/27fXBtcf3cMxrFjo21FbQtkqwaiGfkaWIDFFRlEiL/xcz3Veh8ezd+EbNgjE11x0zwltjC5aiTknDurC0zL+7VFhE0tH/8OnDRIdGT3r9lL3Wq6G6H1UFSUlmaqrqna1QVmIsrgIJgLjn8ps21Fc99aBqIoX9/+eudqiU7QaDLxyDnW3+06qPhUptemKUEO0xbHegqF1+6Gh0lsN0hKXKz63Wri+mKK5xMURUYK3XYf8gUBAW3fLE43+LgAv52yKbObqgc/lSKFFKPnsQjwVqti+vRNeuHey/HsV8HCj/hkaw1/x4du3Su0bY161Lnpnp46iriIuNy1G2BqZlULZsWa2rNuSmuGVYOvfaTFEn/bWs83ddgRZL1qCXWuuZFPhvWAY9xyZFWt8tFWquXdlS/r/19fJvFxnJV7Db04+lHT1WY1R3cZZjVG30+K68NtayqsFepfAkRr5295mNlWSLrAIJgLLl5BXbSN8cZcoo/2UaCfHQEbkqI/uCCBUMV/5uAMdmH79+VAHdpm3swu/ZLODFoyXYeSBG+EQ1z/z3ItjJCdYl5AVjYNIUo2ePYNcI+WM3zsfkH+Hv35P72QjAymE2RrnnnaKf3XFM9JZzFWqZS2rEtIOzbmLO0jejxKqsxGNStTd+XNSBpc/tyf9/MLXXwX0s7eCxBP2V7E1c0rQSLv3+G45HaHnKooKa9RzZ643IKPb6MUA7/xmdh+NNJzeUS3iA569Vl3uY91SMXVcd/bsXN/WQMZo6dWdtMTUjFvEJ6upeCk6tmYmll1+ydrje01VCO3qGqOuvmJqpVjXp62lPHsrXKWzqSJ89FEgAGFvWZaOztExZ4bzMWzi0k9/y00w2GqNUMc+6wddhRxBQvXWx8wj+rN0MbJ/vwtIbJ0+BX7YFxtzQRrZy8R2MHdkhx8jTsutcdg06qp77vx1qI6w+/2clJk4PQJnKrli5bQoalM77SOmWc5v/vCO8Uw6dRRyP+wS9OreUPAquZePEXq9GvJ8Ors249fAcUp/9j3lLT6tVrYXLOqOpm++hhv1UrF7uoXREZN6iNXqWOoVBbRtixNSlLKR09mPlrztwPDCAhdxW1/GJpUrtRky99jg0SnK43w8Bbbcbxg7GvnhrlDWMRvAx2QygrjHsunwHz90nESmbPcXFP8DF43sww60hbN32wHXF/wpkLVVUqe7ige9aVcTrtA0IuqB6Pk79IlynH2f1bu9fs5S2Q1Wkxt5HuEwAlDFvgto1pJWhYqGaznZtRDqO5oAUiGTiO0ced2X07zmjgNLYGV7jvyIzvcPfxWZRREOkdutbxnQpxpEDkwmN5CkbObCogIfDXwj5WSTHnibTe3UgG1TY38vtreXXaD30tzxRBymRgcuYfb+qaKAK/wBZ5SC1ajuReT7Kg3Wlxl3ON2KoOhR2yGLtpNMT40lcXByJuLiNDG5ahtUNGpht8c5LJFqWHxf3VjgzC0U0UPpf3H86SF6k5fwhWl6Xdk9mdvNiooGG7vmWlS397fwO286jyB/+McI3pUPr4KSaZQo1BlZBoLGX2gzdSh6nZt2rIsqlsvIpzDhAlMJu0zTKbL96pkojx7J2utbjXXRQZZF/80PhN9Bu8jHJ5UjL4vsKpTSuWwUUAPQGosmuyV1JRX1LMnzuH+RYwFGyZek40tGh1zvnIhpFb6FbQ2JhP4Rs9PEhvwx3YSGOC6PSfBgBIOfJtUNkxgA7QkM6t+g+isxesowslR0/DG1D2nQeT3xVhHDOzrtryMr361E/su8vXTKV9Hf8nJSv7UKmr/HL0xkqUAgA2kCT0p6Sg8sGEEeHIWTm6u2y5+RP/PZvIQun9iO16riQBTvDNXbsUUTPFOuIonD+srZ3Ju06tH13ODs3YJ2yOqeyyMANZHiXeqSkeT0yfMoSVh6/zBxL2jWsxhza1vjk/z/Sk56SQ79+TxyrWpFW2X4/+9G2g+O7aK30oILnm+X/aFhn5c5n9BpFPSAcdezs5Kg8iu2ziytyOGzRaKC/qBhUvE8+RJtOeX6ZzBnQlFSnbY5FRpX3c20/NyEt+s4hx4PzDvLEonCSVedIqwqFo5omwoNSYAGgIC3xKQm/EMCiA16OeKn0ZmJvXmSfX4t5I+S8fz6kAFCQvWwCAq6QGCUj3PzISIont0MC2TX8A86RO0/+E/HAk0n0tbs5zqPXUdwLPa5GKX9WUqHhpGklLqyQx5qWqWI0Z9t9EbmZT4hsyqsnYWTb/3ozwURDXmePgS+F2KAF7Br98wnv/aFJeXGLRD5XXS6pcffJWVmZB124Tl5lbZVQqHzINp2WeJ9cCpS3ndMhkSQ+UfqoOzuKaLFiI//mhnqs04GF2KijudGaACiqFAUBoAskP/clfUsbE/uhu7UWIkDb0DDcP31pRipU+YFcUbFXgCoUIak1HWkpQoCrC0HNEUdxatOKUDruGoSpUAiPgtSp4rdqkwe5I46ROH8MjoYYV2yHodNbInibFwLuFI51jVQSg/9mkVabDesNOwmLdBTrTl8zg4dI/xDEyAZOUqEWYgMndkd0yCocCxRj3MtRTfFp0/8c9EJIRlcMcW8m5IiHGtJs8YtF38kDRPsb5KbYCwDa8BaHPcAc1+pCDuf9YIx2I2egn8U57DmQFQulSJFO2D4LmqDweC5lVhalZLVKE+r2m4T/fUmwc4evjm2crl2KS5umznNev15Aj1kT4SQlgqcMau58aNN6vGk0E0O/shByNUCYCXA4WoHuT6pJVMLCgO5eNtqqtEYqIMW+q/lt0ZkfT88tJPUNG2u8lsApPtDtNjWpixS6+GtrZK7RwnF2uADgaBWql6SWRy4a6srfN9SShZqKil0Eptw+Np99R8oer6qRm06L296SU1yhun8nk8oaGU0orO7y25pSDFwAcLSO3Ga8aoFHJ+8Lagn0XVdrYbPzQ+TOk7xWaZlpySTiojf5sV8DoqdnSb5drL3492mJcr+L3L4zHN1AMUjS1H+CzkapT8JVDWYOuSnwjmAcjjKoh3KXPhcx/8wulXvKfmgSHoTheMAeHNlzBkEnI2HW2gbljahn5i3EkDpo0MwWrj36o3Pnpqio5e0c5Tu1LUU37xMY4VBayOUUf1JwbGEvzL/pBp9tgyXH7tF2u+ICgPPeoJXVfcZtzN60Fl8WUSHwIUl64IvhPT3RxWsvBtoW110yONkJ3fktfvBzhPfmQahsJK33p4OGAZ324tujO7U2qNIBM1DOh8KsxQQc3tINfvuk7TGgK5S07IptQYvxdNsu2YxDyOQUW2gHfujxABz9Y7Dkzp/GZ9q58R7mnNbujJrPADgcDkdH4TMADofD0VG4AOBwOBwdhQsADofD0VG4AOBwOBwdhQsADofD0VG4AOBwOBwdhQsADofD0VG4AOBwOBwdhQsADofD0VG4AOBwOBwdhQsADofD0UmA/wOLQyzvAjFNBQAAAABJRU5ErkJggg==;strokeColor=default;" parent="1" vertex="1">
          <mxGeometry x="883.97" y="960" width="147.23" height="23" as="geometry" />
        </mxCell>
        <mxCell id="IgM3bS30g-ZwomFUyN2R-18" value="&lt;i&gt;t3 =multiplication&lt;br&gt;u&lt;br&gt;&lt;/i&gt;" style="text;html=1;strokeColor=none;fillColor=none;align=center;verticalAlign=middle;whiteSpace=wrap;rounded=0;" parent="1" vertex="1">
          <mxGeometry x="955" y="1165" width="110" height="30" as="geometry" />
        </mxCell>
        <mxCell id="IgM3bS30g-ZwomFUyN2R-26" value="" style="shape=image;verticalLabelPosition=bottom;labelBackgroundColor=default;verticalAlign=top;aspect=fixed;imageAspect=0;image=data:image/png,iVBORw0KGgoAAAANSUhEUgAAAS0AAABZCAYAAABrJ3KNAAAAAXNSR0IArs4c6QAAAARnQU1BAACxjwv8YQUAAAAJcEhZcwAAHYcAAB2HAY/l8WUAAB1WSURBVHhe7Z0HWBRHG8f/INVuwIINUWxgw09R8kkMoKIYo/GL2MCKxNhi19hiNxFrosYCtkgssUcBC2ADewMLKgqKCgoKCModHMx3s7cnxWt7AnIyv+eZZ2dnZ+/29mbefed935kFKXJEJPDXnsRMT4+U0bMnK4Jf8uUll4STc0jtmu4k6JGEL8mPOOkeCQ45QP5cOpU41TIiALjkG57J1/i8ySFPiE+PWqTfvFNEzJcxSheSjEgypYM5GbDoghZtQESCf+tGrBx+Ifff5fBlmlPkQksUf4T0KJfbsVt9t4XEC7/OYkOceJJ4WpYjozdE8SWqoQKutAmt0FVuxKzmOHL1TTZfwiiNvLywgtgYtiN+l9L4Es2RZFwhU9qaaSX09KWdrUjRNzFBJYPcrzEqbwIjPl/yEOPI8ik4/cVkjPJsxJepxrRCZT5XOnj38G/MnXYcQ30moXWFIm8+jBKMebvhmDQ4CYt+WoOHUgVICGVM/oNRMz2xe9Y47LmexZdqCC+8ipTHJ5cRl+a1Setu48kZJUOuksCbG+tIKwN9MsZPMy2LknpxRanRtHJIKtkxpgUxrzWVXNdCrWfkcu/gVPLj8os6P7ymfaZpGX0y2f8xX6I5OeQWmWlvTuz6bCGvBDSnYnlU1nWZhJMRcbgasBKOVmX40pIFwRsc9l2P+/BAnx7WfCkjL+k3/bFs/S10HtcbrUz1+FKGNjy8FYQLF+4gXZiCUuIo3/IbDHOtgX+W+QvWtvRgi/95d0TE3pUIuKG5tsX0e56Mh0ewadMdOIzvj/ZVS6Zg/bSIcWKvL27nOKLfd//hyxilHT3UgYv713hyfRUCQ9P5Us1p/HVvdDC6A/89wcjky9TBhBbPvXNHcVosgbNj6xJsc/t0SERXEOL/ADVbusLWmgl1Ri6NO3RHO6NX2L03GELFlmkDR3zjUg3nlh/AteQcvlQ1TGhJIYhD8J5TMC3jji/bmvGljLy8CjuOtTFpsPveGQ302NCQkYtpg5ZwaVUFN3wDcUtDwSOHamptutgiPWsjQs4m8aWqESC0xHhx7yJOBu7C7z7LsfKPHThx4TbeiGTj2OR7/yI8SsLlFfEuJQUp0hT/NFmNGijm6tH0OCGZL5NDj73A7Rt38VJ6XKoYFQriZ5dxIjQRVi5fo0mN4tEickSpiLwQhG1rVmC5zyb8GxqOh0kZ/FGhyO5L5MXriFNwXzJf3ceBrfPg3bcLflqwBzFpwg0p1y4EclvHNk25rS5C7/nDqLtIVGFIynr1AmmF1K50hez0VLxKuIeIqHikamFk04M1WjtX4wRP+GXhQ8SmzRy4bcjZaxoNETUSWk/D1qJ7y27wOfYEla2+wqARwzHE0xEVUiLxm1dPTJ8/Ds7NeuHAtef8GTICF7WEnvSpTFO5KlVQRZq6Tzz0gfGRIBFrB9Tj65pw9WgatTGCP/4Gx5YPRyeXkfDZuAOBJ3ZixkAHmBrVw4j5hxGfJfxG5yU16iaOZ2TBooUVvihiJSIr5T42Tu+NBvV7YvOZRFS3bQW7Ng2Qk3AWU1wao737PByPfMXXVk2O5CUOSe9Lo5r10OPHX3HsTAjWzBgMa+N68Jq/B4+SU3B6rRcG/hwI05YemDejL24uGohRi49pbD+gUE30dvgzGOp3hLVVWb5Ud5C1H0/ULVcF1k1tUL2iFWZsjvjgHmSLbmF2/3mCtQVdhN6TKwd9MPC/jdGy83is2H4Ex/9dhVGuTWDjPBT+Gmo9MoxRv5k9l7t66y63FUJF65boYmqI6GDpQ1cTYz7vRVRK1N6RKqPDqRs8YFFX+k0fuD0Tok6R4JBg8teS77mIeFpHsXtTRGKvhErrBpCNM3q/r+s275T085+QdV7uZH2w9OfkgX7v39PsuHr/9dwpyGVakNBVnbnPmbjtHl+iOUJCHp5dWctF0Dt4/kkevv4wMJP+ptBV7sRc35L87HdTpTv8XexxMuTLKtwsg41nEvlSGe9i95GedUy4a/opT5AsvVZ6b53HHiBCwgEzk08Sj0ompLLxFHI3W9dCHUTv22fepIdqZJp/7v8ta8ffkp93C3fda0PAwhaCXf2FxeuovWSkixWpYOGqsF/R+0Xvzw+rNQ/JSAlbzN1Xey36Yg65SkaZlSOmZdxJ6HP1IVEqhVZWxjky2qoCGbD8Al+iGHk9ZbEa3LQPt5rcj1L3R8ljN2jdrvMOSm/gQLIp/A1/ND9vo/1Je6My3A3+I1hxHXXQP2nHmEbc9y069IIv1RxNhRaNHqYxYPUdlpDoHFX/qojsm273QafKC71Hsxyrct/pqeS/uebbnztecKrEi6i7JClLWKuSx+JY2i1Wc+0lj9gj07iHwPB520mg9AFKH6IH/15Jhrs1IXp6lsT7tz3clKy5fZsV67SkTyW0Iv6dyrXDqg0Hk2ClioisD9IHorK+VxD6oJRqS6RarTmC2wiVD2v61OXavN8l9bGOKoeH7+5cxq7YdNQwr8KXKMbApA2c+9bh9xRhAtNKhnxeHdVg0aAcl4s+vwEBhmPh5VCB2y+IaYMmaF3BRCoxXuL8jTt8qVBSEf9INg6vXlX179QWSfo5zOg3Bzcl5piwcLQaQ7Yx3MbMQmfTZCzz8MQOBdHCjw/5YuHZRJTRa4EuTq350vw0/vobSAU6Ys7Pw8YDcXyp9O42bgIzA2Fj4HdJCZBqWPjC2gJVoDtGeILb8J1/DkvORcJ3jie6OjnDWZp69h8P36N3IUo8jkFtzZB00R/HjSZj5eyOn7Xn+GnYCgz6bhkis9tgxe5NcFYSM0njpzoNsEM2uYRVC3YggT7+1KBvbAxjfT2kJUQhLkHo8NoEJuUNuH4cHRPPlylHtU1LQvBKqo0F7QrAE5V2o9wxbWHy5Hg2OvdSHRNkoi/7CSnpIm4rnETEX07j7DVVzYumQ57zWwJfqfCvZDwYnb4uz5cqx7iWI77tVZNrNL/O9C3QaMS4duE4lzPQr4dq5or/QkOz6rA2lT0ozgSF47UGDU8ZyUkyofeFZQ2U1x2ZJaUiOs5ejUFKHnpGZo1gUzMeAeeaYcNaT9TQqd8mjIzH+zGm/0zckORgwLLf4WGnWomoUaM2t40+HoSIp9lcXhVGNSzQsKwxciBCpkBHhh6qomYDWb/I0uBclULLqJYlZyC7EzgBbq4TsOd8tFKPXYv/rcJC97r8XuFQ2aJ9kccEZYsykCrJhr5eJZiYFH6rlYjCsHf1WS5v9a0NqmkQLkD/xKatanD5qKD1OJknWpgaUOMfv+X3lGNQuQqqGckaZpZIW4EuIyP9Dbc1rmCqU5oIdad3+uY/Sq/51c118JoYjck7Z6PZZzyPkjpSNv88EYfiRChrMAhenm34I+oRZx9G3FPNNSeh9QtyJzqGzylHj44R+bwCxAhc3AtuM4P4fekJepZw7OSMjt84w9HeDu1a2aCims5OvYPrBrTFmJ2PIR3H4+TuIUq9dMLqXsPkal9jRWIa3OadwtE5HfkjmiN6th89G/bD6cxuOByzH13qCBOSby6tRKV2E7m8b3gmhjvkf4K9ubYK9dtM5DRWl8mBCPDpqlHHj9o9DE37beHyP2yIwnrvxlyeEjCvBbrPjYRxmW+VXnNWSjCG1fsGO1JF6PDjAQSu6wX1Op5iqBfYbVaE4HtMBWzI1s24nqj+Sa0NX1h3gcd3zbUSpHSoNOb3LCz1nYJGHy2wxLh6cCtCH2ju7o86tRQBz53gLW3rmv4v2v7eF6cXw9ZpFtcGu04PxKEl6tug/D+nKGrXBcnbFzWpXxBBbYyzbKmAGsn8x3eigk1hosbMAVO2kUdvlBvfcshLsqa/JVdfvSFeSN2rZGLVClxd6mnUhoynMgOiVACQY0+ET+ZWZ4i/u2vo++NCrjHvea6z8p+XcGrRew/r2jOKTcd5nRTaOBjyQo3GQq+fQr2OdJkf+e8o7NTCeQV5ooUh++aBKeT7oVvJ80wtTlZADnlAFnaxVniNhZmoE+eBwGumjiY/rwbvP2P5sVT+iHLkhnFaX1PjeN6+qMohpQwhbUztI4aq2ANWnsCjC3swc5grGloY8EdkEPIYf/sMhovrPNxK0734ljLlKkmHUcUTUKotL+/F5LNJVes4Ar8NseHyhw+HKIy5unhwCy5kZsPBcymG9ajGl2qHafnqfE4YhpVdsD02nT4YiyTdDJ6AOoJG9GKcWt0XSy65YMvmwbAwFHSyUmhw5cxjDxReo7Ik7aTcSEL6UFZ4XFF6GD4d1gKvWZJyGaH/POPy5Q298WVb9XpdtugJrp+UxWmVM+wFmxI2bUtjvdiqXR8s9AvC/edZSE+OxcWQA/h96qD3Qox6qcZNOyx47tGnJq/tp6RS0ABObV4DFy9Aj3JGOLn8Fyzdf58/IiPi4FRMnB4Cux5LsKUQDMxyo6wuQ4eqgYvd8Xf2JGxb7Kr1UFnXyHgUicA3Yi5f16kV6lVW3+XfRVzCwRTZ7IyGvRzQSINz5HysQ6tODZktVxUqr+bdwxP4K+Qpv5dLucqWsHfqhbG/bUPUk2fYObMzVx624U+EPNC1ORDG0Kug/9EGRGVY1GnI54Ck6HiNvXgiSW7F6hZVPrBBnP97F74PfYYbAR64u7wHrJo7oVMXF3zVojYG/JaIYbtv4Mzh6YVgr5EKSQNjbht/K7/GpytQQ/TOCUMQXs8HGyfaa2UD01n4CABKHXsbjR5gYSd2cudIh4b43sNNo1kikpRkvMzM0sqhRR8orxNkzqIK5U25rSpUtmjJq1tYuf6kyoaqb1ANfRf6YU1/S2TmHEd0zDv+iK5QTapFylYfFecRFIVFWRt7eFQy4fLpL9TNu8zlefRVbktjsboViMWiRs/A9U1h/x8zNOs6Fv5h9/DoehD27tmHI5ficOv8Fozt3bzQtAmLOrJVXIn0eSRk+k9JIEfyBOtHjEVStw1YMED5arQ0pmuu6zzBa0LpErYNLficcqi3+6hfFJe3cpiAvj2qcnl1ZL9NlQqtbJgaNEbdWkIflGKkvJJpg1Z1PlLTojw4eB73U1RrINyaOj2dubyJqayD6gp0qFXfthKXj4lL4LaFiWHlDhgw9UsuHxtyAfeT1HvSaAcKD5AF2TXpOhKdWuUfvoqfxSLyRQJSUnM7GNWGKleurNaTqw3y0JcngTFI0aFOTTWsDSN+QFafTRjXRXXni9j9B660boc6GoSk6BIGZtW5IGOKvoH6vhl9yI9bzaOMnj1mrh6j8YoemS+e4KpIgnpuNqgs+B6+RMzFFM4b3qC2evuZWqFFZ27vC/xwiKgIOp6tXePjhyPFTf0mMqGiSYyIcIzh4j0Dnpbl8E6yHf+ekBlFVZF+8wz2X33NNZzxsz0+UOmp88Bcbxu274zkS4oW41qN0dyiLN5m3cCTZ7rhbKEC68+hXXHCvD+aG8bhKW+jUQQNfxg96Qb6ubt8dkNH0wb26N5ettzS8wTV0eaiZ0cxfcpOblg4ecdfGKaB0V5OcnwCN6Ssbmsl2IYqSUnAC6mmRbU0S0v18kMjCbN72VqVnkE6Jg0/eQaNXPvC3jq/d1E40rEtP0wTMhwRp2VoPXSpad0CTcvo4/mNGI2mLAjFyNwFy3cvQCsDfWyaPAXHYpRrW5L0K1gwZg6iss0xwXe7wmhug8pt4dSnFtaP7gLH/hOwzGd5vrTcZw3+CQxGSGg4ohMKY7heB3Zu1Tm7X3Rs0cRcFS5iBC32xuxzdVDPNBW3b+2Bdzsz1G/eD/M378Wt2NfcUj4RFw5h6chuaOU4GZajVsNdTZS4LkI9m55Th8JMqv1cDzqPOCXtm7a7Of2G4HBcRUzYcALzVQylFfHw9ilu27q5FbcVgtxZ0Mi9tUbB19SVqhR5DFKlBlbEoccSEqVgZQLK9R3eCleCeJucTJKTE8jVQB/S0dhA9lkW7mRbcCR5IT2WmpEbcyKve/nAfG5CJ61LJ2wu2xfB1U1OfierKIXWfZ0cS05smshN5C34uXnragKNMZlUvxKpaDROoxc25GSJpN+RTF7GXCSrRnfgvp+m3tO3kciYV9wxURZfOQ/yVR7oZNX9EUl8aS6ihDNkes+GXOyb+lUecldyUJe+sHYl038/JniidF7kcWM/aPhqtU8Jfa1bK6dfSESe9pqZfJl7T1/Be0PTl55bi/21dsU7YVr27lFzvepkqoKVTN7FHnm/6kPBFUM0QR7XJR1pkUP3FTR8NVzfMYT7HzRtW2qFFhUGVBjF3/qHjOregXw/8meybf8JbhmZrX/MIQOdGxPH/r+SSwWWlJAHidLgNLuvnYlL59zUsb0sEE++KoSquk5OzbhASvkfLA9iox27Q556NMk/V3hjEJF9s1pz369JYJxcmFe2bpfv+2lqaCETzso+JzP5Htm+YAhXz67bSPLL0mXER5rGDe1Iautbkj4/rvrgXn6IiESHbpTe+3qkaXunD65Bnto0NOauRZ7spA+ee1q+q5AGq9IHT/F1NO3ISjtLvG36kRAFgcK0c/ZtUv79/aBtaPTqi4KW6Sksin+VBxG5tGsmcW5US9pf55I9ASfJsf2byZgBdqSmRUcyefUxkphHiRCCfOkimy7rBAt/+SorQgSeSqFF36QcnZi/kafE3uCW96Dp1Pnb5GVaCW7BApBHmatbhqfwEEk1tdx7efnus3yapzLoU83Py457Km67pP6pmJX2goRJtVf5m7D7aLn8Cv1e+lbp8obe5LwSjbskkJUWK9V23/J7H5Kd9YJcCg0mISFXte6khUHxCy05IpIQdYFvd2HkQfzrj16OR/7CYiGv3pNDl7UaXqUsse2mucBTKbRKE/I1hEr6mlH07c5UI9RkOkZe5JqSpkNgRcQcHM81zrn7Pm5aEONTCq3Chq7/ZkPKGgwip18KnwYnF3hC2pTuufqKCLqGkMfEHlq/Cqk4oKEQR34P45a4ceukeLkVZZg26Iw+vWvhbdYp3FKxlr8q6rh6YEpbM/zju69IHBalCWNDUxia6FZ4kCLEScHYtfYhus8eJvjVe9SBd3SXP+ra/YI+3TSLB6MwoZWHxn0nYaYjgf+OoyV0OpIY5CPmd5qYlIG+XhVU1HJRLPoq89G/eOHlsQ35lsthCMdp4mmc2Ni3yN9JUNSc91+Lw+9c4TW0g+BwEfry3z+2xsB98jDYCHn5L69xMXhehC0mNgYtNV5mtnjJdRgIHR7Kl8NVv9yzajhPUX/Lz2Row/gYxImyVTxGa+FRlhngWwiyZclhQusDROToXGetbmZxkJUmc91raoiniOJPkHH/NXvvCf5YqAB0NbUQLDgZnxOydxlo+xCktqyq+vbkr2vCl7FhQksBcsGgzROkOMjOeky2TvuO1NavTnqOWEVC7zxTGBeWEnuR+C7oT2rp65H2fX4lN18Wntfvxq4fSN1a48hVLUMoGLoNHZG0qKXdQ5D2r7FtLJW+uEUdalYuLb3QNbX7O/rgm93Hlb5Y41MjSX+MyydDsevwToSfO40kYwc0sNDn3ocYdVcC2+YOcOznhv91cYNt7cJ+X6FsVduFUf2wb9vgz3p9dUZ+PqZvyKdXnbVah21ztHuRCBNaKsh4fBTDe66F25Y98LArLSswCUGMoN/6wu/ZEPyxuhcTXKWArJQrmNVjPKwXH8QIR3O+VDOotzBocV9sl0zHJqnA0rZHMaGlhqyUSPw+9zzcV3oLXCWz9BB5cDYulZuK4Z1LpkbKKCzEOL52LiTOs+DWVPaaPyEkhvtiU2w7TB6g3br+cpjQYjAYOgWL02IwGDoFE1oMBkOnYEKLwWDoFExoMRgMnYIJLQaDoVMo9R7+9NNPOHToEL/HYDAYxc+CBQvg6enJ78lQKrRWrFiBs2fP8nsMBoNR/Hh7e6Nbt278ngwWp8VgMHQKZtNiMBg6BRNaDAZDp2BCi8Fg6BRMaDEYDJ2CCS0Gg6FTMKHFYDB0Cia0GAyGTsGEFoPB0CmY0GIwGDoFE1oMBkOnYEKLwWDoFExoMRgMnYIJLUaJ5P6haRi14hIy+X0GQw4TWowSycNbQbhw4Q7S2RokjAIwocVgMHQKJrQYDIZOwYQWg8HQKZjQYuRBjMTHUYhOeMfvf0iOJBUvknL4vdJBdnoqXiXcQ0RUPFKZke2Tw4QWg+Np2Fq4Na6CavWaoqFFOXQcth4xaQU7qBinVgyGX3gSv//5QvAGVw76YOB/G6Nl5/FYsf0Ijv+7CqNcm8DGeSj8z37+96DEQteIZ5RuXl5YQVoZ6FMJlS996bmVxOfwlaTEnVtOvh20k7zKU1ZUBCxsQez6bCmW7yrI66i9ZKSLFalg4UrWB8fxpTJySCoJWNSV6KEa+WH1RSLmyxnFB9O0SjmZScGY1Hc2jL+bgz0BJxEcEowTATuxYFRPPPYfiu/6/oZ/Q0Pgv8wDblPeYNEad3yhx5/8GRJ5ZBqcm7lj35OvcDDsKH5wrs0fkaGHiug6Yxlm2OfAd/xYbD+fxh9hFBu88GKUUkJXdSb95p1SqDFkZ6WQiPMh5NjhpcS5Tl8S9EjCHyl6PoWmRTVJqnGW0bMnf13L5EsVQ+8b7T623dbl00YZRQ/TtEo51WwnYP6Ur2DE7+dF36ASmjarhTuHz6H/7k1wtSrDH/n8yHi8H2P6z8QNSQ4GLPsdHnaG/BHF1Kgh08Cijwch4mk2l2cUD0xolXJsOnVDQ1PF4z1JeiQWeU1G+WE74OVQgS/9/CCIw+afJ+JQnAhlDQbBy7MNf0Q94uzDiHtaurypnxr2stZPzLOwv7Az/CW/V7iUMbFEryH/g1UF4UaorJQrmOP5K2znb5VqHeX5Um0R4+rBrQh9kM7vqyfq1FIEPHeC94C20PTbv7DuAo/vmivUGlXx4vRi2DrNwitpV+g6PRCHlnRV+xmBi1rCbVYEl/cNz8RwB9WaGaMQ4QaJjE8C9UT5j2+Zz2NXmKl8jY5kd0QW/22a8y72CPHqPrTQbFg55AFZ2MVa4TUWZqrvsIQ8yBRmYKL/gZ9Xg/efsfxYKn9EOTnkCVnTpy5Xn3oR/S6ptn8xChcmtBj5SLqxlrg5TyOXX2bzJZ+G4jLEZyafJB6VTDgBVN7Qm5x/rf53Z2WcI8OrlBV0DqPwYDYtxnuehq2Ax5w3WHlwMdpULR1NI+NRJALfiLl8XadWqFdZ/e9+F3EJB1MyuHzDXg5opME5jMKD3W0GB41PmuBnhs17p6FRhVLULCSEs2VR6tjboIYG5r+wEzu5c6RDQ3zv4fZZx62VRJjQYuDm7p/gE+6MLZsHw8JQeQ88tbo3Nl/O4vc+P2wbWvA55UhEYTjqF8XlrRwmoG+PqlyeUXwwoVXKubl7JH696YZ1i11VeuloHNMfGxqidTMDvuTzwMCsOtobyeLP9A1MuK0qog/5YW1MGsro2WPm6jFooMfUrOKGCa1SDBVY/deY4PtOhoiNfa10aWMa/jDXayrKefVGKyUxXbqKaQN7dG9vxuWfJ8RzW2WInh3F9Ck7uWHh5B1/YVjbjw0FYWgDE1qllMSLKzHU8xhsm5VF/O27WD/tK1S2aAqvqRsRdP0hUlJSEBd1EX+vGY2vbb/EP289MPtHe/7szwc9WMNz6lCYSTWm60HnESczb32AJP0K5vQbgsNxFTFhwwnMH9CIP8IodngvIqMUkZV2loywcSIbzyTyJbmrF9AmUTBVsnAv1nmHlOKdeygigb/2JOZ61cnUbff4slxo3Jp81Ye894zxaWCaVqlDjMOLJsH8l60Y4WjOl8lXL9gIPy87vkSGQ5+VuHh752c97xAwRtdpuxGw0wtXFjnjqwHz8E9gMI4f2IKxA1vD2sEH5b9dj0ePAvPdM8angU3jKXWI8eDmM1i2rK90qsrjm6fw8HUOqjdsD9vaZfnS4oVOk5l5cwJO7h5SzCEFYry4dwO3n7+V5k1Qt2lT1K1RRfDUIEbRwYQWo0Ty6YQWo6TDhoeMEomxoSkMTdSHIDBKH0zTYpRIiESMNIkRKpowNYuRHya0GAyGTsGGhwwGQ6dgQovBYOgUTGgxGAydggktBoOhQwD/B3OcX+LXQ2ewAAAAAElFTkSuQmCC;strokeColor=default;" parent="1" vertex="1">
          <mxGeometry x="1050" y="982.55" width="116.52" height="34.45" as="geometry" />
        </mxCell>
        <mxCell id="1NsVZd2KORfXH9QiTWau-3" value="" style="rounded=0;orthogonalLoop=1;jettySize=auto;html=1;dashed=1;endArrow=blockThin;endFill=1;fillColor=#d5e8d4;strokeColor=#82b366;entryX=0.298;entryY=0.057;entryDx=0;entryDy=0;entryPerimeter=0;" parent="1" source="uV75IOI4h8Hwh0jISY2_-27" target="uV75IOI4h8Hwh0jISY2_-25" edge="1">
          <mxGeometry relative="1" as="geometry">
            <mxPoint x="1006" y="1074" as="sourcePoint" />
            <mxPoint x="1040" y="1090" as="targetPoint" />
          </mxGeometry>
        </mxCell>
        <mxCell id="uV75IOI4h8Hwh0jISY2_-25" value="y2&#39;" style="ellipse;whiteSpace=wrap;html=1;aspect=fixed;fillColor=#d5e8d4;strokeColor=default;dashed=1;" parent="1" vertex="1">
          <mxGeometry x="1017" y="1121" width="25" height="25" as="geometry" />
        </mxCell>
        <mxCell id="1NsVZd2KORfXH9QiTWau-6" value="" style="ellipse;whiteSpace=wrap;html=1;aspect=fixed;fillColor=#f8cecc;strokeColor=default;" parent="1" vertex="1">
          <mxGeometry x="1228" y="1125" width="25" height="25" as="geometry" />
        </mxCell>
      </root>
    </mxGraphModel>
  </diagram>
</mxfile>
